<?xml version="1.0" encoding="utf-8" standalone="no"?>
<!DOCTYPE svg PUBLIC "-//W3C//DTD SVG 1.1//EN"
  "http://www.w3.org/Graphics/SVG/1.1/DTD/svg11.dtd">
<!-- Created with matplotlib (https://matplotlib.org/) -->
<svg height="288pt" version="1.1" viewBox="0 0 432 288" width="432pt" xmlns="http://www.w3.org/2000/svg" xmlns:xlink="http://www.w3.org/1999/xlink">
 <defs>
  <style type="text/css">
*{stroke-linecap:butt;stroke-linejoin:round;}
  </style>
 </defs>
 <g id="figure_1">
  <g id="patch_1">
   <path d="M 0 288 
L 432 288 
L 432 0 
L 0 0 
z
" style="fill:#ffffff;"/>
  </g>
  <g id="axes_1">
   <g id="patch_2">
    <path d="M 54 252 
L 388.8 252 
L 388.8 34.56 
L 54 34.56 
z
" style="fill:#ffffff;"/>
   </g>
   <g id="matplotlib.axis_1">
    <g id="xtick_1">
     <g id="line2d_1">
      <defs>
       <path d="M 0 0 
L 0 3.5 
" id="meee3a395e9" style="stroke:#000000;stroke-width:0.8;"/>
      </defs>
      <g>
       <use style="stroke:#000000;stroke-width:0.8;" x="69.218182" xlink:href="#meee3a395e9" y="252"/>
      </g>
     </g>
     <g id="text_1">
      <!-- 0 -->
      <defs>
       <path d="M 31.78125 66.40625 
Q 24.171875 66.40625 20.328125 58.90625 
Q 16.5 51.421875 16.5 36.375 
Q 16.5 21.390625 20.328125 13.890625 
Q 24.171875 6.390625 31.78125 6.390625 
Q 39.453125 6.390625 43.28125 13.890625 
Q 47.125 21.390625 47.125 36.375 
Q 47.125 51.421875 43.28125 58.90625 
Q 39.453125 66.40625 31.78125 66.40625 
z
M 31.78125 74.21875 
Q 44.046875 74.21875 50.515625 64.515625 
Q 56.984375 54.828125 56.984375 36.375 
Q 56.984375 17.96875 50.515625 8.265625 
Q 44.046875 -1.421875 31.78125 -1.421875 
Q 19.53125 -1.421875 13.0625 8.265625 
Q 6.59375 17.96875 6.59375 36.375 
Q 6.59375 54.828125 13.0625 64.515625 
Q 19.53125 74.21875 31.78125 74.21875 
z
" id="DejaVuSans-48"/>
      </defs>
      <g transform="translate(66.036932 266.598437)scale(0.1 -0.1)">
       <use xlink:href="#DejaVuSans-48"/>
      </g>
     </g>
    </g>
    <g id="xtick_2">
     <g id="line2d_2">
      <g>
       <use style="stroke:#000000;stroke-width:0.8;" x="130.151843" xlink:href="#meee3a395e9" y="252"/>
      </g>
     </g>
     <g id="text_2">
      <!-- 200 -->
      <defs>
       <path d="M 19.1875 8.296875 
L 53.609375 8.296875 
L 53.609375 0 
L 7.328125 0 
L 7.328125 8.296875 
Q 12.9375 14.109375 22.625 23.890625 
Q 32.328125 33.6875 34.8125 36.53125 
Q 39.546875 41.84375 41.421875 45.53125 
Q 43.3125 49.21875 43.3125 52.78125 
Q 43.3125 58.59375 39.234375 62.25 
Q 35.15625 65.921875 28.609375 65.921875 
Q 23.96875 65.921875 18.8125 64.3125 
Q 13.671875 62.703125 7.8125 59.421875 
L 7.8125 69.390625 
Q 13.765625 71.78125 18.9375 73 
Q 24.125 74.21875 28.421875 74.21875 
Q 39.75 74.21875 46.484375 68.546875 
Q 53.21875 62.890625 53.21875 53.421875 
Q 53.21875 48.921875 51.53125 44.890625 
Q 49.859375 40.875 45.40625 35.40625 
Q 44.1875 33.984375 37.640625 27.21875 
Q 31.109375 20.453125 19.1875 8.296875 
z
" id="DejaVuSans-50"/>
      </defs>
      <g transform="translate(120.608093 266.598437)scale(0.1 -0.1)">
       <use xlink:href="#DejaVuSans-50"/>
       <use x="63.623047" xlink:href="#DejaVuSans-48"/>
       <use x="127.246094" xlink:href="#DejaVuSans-48"/>
      </g>
     </g>
    </g>
    <g id="xtick_3">
     <g id="line2d_3">
      <g>
       <use style="stroke:#000000;stroke-width:0.8;" x="191.085504" xlink:href="#meee3a395e9" y="252"/>
      </g>
     </g>
     <g id="text_3">
      <!-- 400 -->
      <defs>
       <path d="M 37.796875 64.3125 
L 12.890625 25.390625 
L 37.796875 25.390625 
z
M 35.203125 72.90625 
L 47.609375 72.90625 
L 47.609375 25.390625 
L 58.015625 25.390625 
L 58.015625 17.1875 
L 47.609375 17.1875 
L 47.609375 0 
L 37.796875 0 
L 37.796875 17.1875 
L 4.890625 17.1875 
L 4.890625 26.703125 
z
" id="DejaVuSans-52"/>
      </defs>
      <g transform="translate(181.541754 266.598437)scale(0.1 -0.1)">
       <use xlink:href="#DejaVuSans-52"/>
       <use x="63.623047" xlink:href="#DejaVuSans-48"/>
       <use x="127.246094" xlink:href="#DejaVuSans-48"/>
      </g>
     </g>
    </g>
    <g id="xtick_4">
     <g id="line2d_4">
      <g>
       <use style="stroke:#000000;stroke-width:0.8;" x="252.019165" xlink:href="#meee3a395e9" y="252"/>
      </g>
     </g>
     <g id="text_4">
      <!-- 600 -->
      <defs>
       <path d="M 33.015625 40.375 
Q 26.375 40.375 22.484375 35.828125 
Q 18.609375 31.296875 18.609375 23.390625 
Q 18.609375 15.53125 22.484375 10.953125 
Q 26.375 6.390625 33.015625 6.390625 
Q 39.65625 6.390625 43.53125 10.953125 
Q 47.40625 15.53125 47.40625 23.390625 
Q 47.40625 31.296875 43.53125 35.828125 
Q 39.65625 40.375 33.015625 40.375 
z
M 52.59375 71.296875 
L 52.59375 62.3125 
Q 48.875 64.0625 45.09375 64.984375 
Q 41.3125 65.921875 37.59375 65.921875 
Q 27.828125 65.921875 22.671875 59.328125 
Q 17.53125 52.734375 16.796875 39.40625 
Q 19.671875 43.65625 24.015625 45.921875 
Q 28.375 48.1875 33.59375 48.1875 
Q 44.578125 48.1875 50.953125 41.515625 
Q 57.328125 34.859375 57.328125 23.390625 
Q 57.328125 12.15625 50.6875 5.359375 
Q 44.046875 -1.421875 33.015625 -1.421875 
Q 20.359375 -1.421875 13.671875 8.265625 
Q 6.984375 17.96875 6.984375 36.375 
Q 6.984375 53.65625 15.1875 63.9375 
Q 23.390625 74.21875 37.203125 74.21875 
Q 40.921875 74.21875 44.703125 73.484375 
Q 48.484375 72.75 52.59375 71.296875 
z
" id="DejaVuSans-54"/>
      </defs>
      <g transform="translate(242.475415 266.598437)scale(0.1 -0.1)">
       <use xlink:href="#DejaVuSans-54"/>
       <use x="63.623047" xlink:href="#DejaVuSans-48"/>
       <use x="127.246094" xlink:href="#DejaVuSans-48"/>
      </g>
     </g>
    </g>
    <g id="xtick_5">
     <g id="line2d_5">
      <g>
       <use style="stroke:#000000;stroke-width:0.8;" x="312.952826" xlink:href="#meee3a395e9" y="252"/>
      </g>
     </g>
     <g id="text_5">
      <!-- 800 -->
      <defs>
       <path d="M 31.78125 34.625 
Q 24.75 34.625 20.71875 30.859375 
Q 16.703125 27.09375 16.703125 20.515625 
Q 16.703125 13.921875 20.71875 10.15625 
Q 24.75 6.390625 31.78125 6.390625 
Q 38.8125 6.390625 42.859375 10.171875 
Q 46.921875 13.96875 46.921875 20.515625 
Q 46.921875 27.09375 42.890625 30.859375 
Q 38.875 34.625 31.78125 34.625 
z
M 21.921875 38.8125 
Q 15.578125 40.375 12.03125 44.71875 
Q 8.5 49.078125 8.5 55.328125 
Q 8.5 64.0625 14.71875 69.140625 
Q 20.953125 74.21875 31.78125 74.21875 
Q 42.671875 74.21875 48.875 69.140625 
Q 55.078125 64.0625 55.078125 55.328125 
Q 55.078125 49.078125 51.53125 44.71875 
Q 48 40.375 41.703125 38.8125 
Q 48.828125 37.15625 52.796875 32.3125 
Q 56.78125 27.484375 56.78125 20.515625 
Q 56.78125 9.90625 50.3125 4.234375 
Q 43.84375 -1.421875 31.78125 -1.421875 
Q 19.734375 -1.421875 13.25 4.234375 
Q 6.78125 9.90625 6.78125 20.515625 
Q 6.78125 27.484375 10.78125 32.3125 
Q 14.796875 37.15625 21.921875 38.8125 
z
M 18.3125 54.390625 
Q 18.3125 48.734375 21.84375 45.5625 
Q 25.390625 42.390625 31.78125 42.390625 
Q 38.140625 42.390625 41.71875 45.5625 
Q 45.3125 48.734375 45.3125 54.390625 
Q 45.3125 60.0625 41.71875 63.234375 
Q 38.140625 66.40625 31.78125 66.40625 
Q 25.390625 66.40625 21.84375 63.234375 
Q 18.3125 60.0625 18.3125 54.390625 
z
" id="DejaVuSans-56"/>
      </defs>
      <g transform="translate(303.409076 266.598437)scale(0.1 -0.1)">
       <use xlink:href="#DejaVuSans-56"/>
       <use x="63.623047" xlink:href="#DejaVuSans-48"/>
       <use x="127.246094" xlink:href="#DejaVuSans-48"/>
      </g>
     </g>
    </g>
    <g id="xtick_6">
     <g id="line2d_6">
      <g>
       <use style="stroke:#000000;stroke-width:0.8;" x="373.886486" xlink:href="#meee3a395e9" y="252"/>
      </g>
     </g>
     <g id="text_6">
      <!-- 1000 -->
      <defs>
       <path d="M 12.40625 8.296875 
L 28.515625 8.296875 
L 28.515625 63.921875 
L 10.984375 60.40625 
L 10.984375 69.390625 
L 28.421875 72.90625 
L 38.28125 72.90625 
L 38.28125 8.296875 
L 54.390625 8.296875 
L 54.390625 0 
L 12.40625 0 
z
" id="DejaVuSans-49"/>
      </defs>
      <g transform="translate(361.161486 266.598437)scale(0.1 -0.1)">
       <use xlink:href="#DejaVuSans-49"/>
       <use x="63.623047" xlink:href="#DejaVuSans-48"/>
       <use x="127.246094" xlink:href="#DejaVuSans-48"/>
       <use x="190.869141" xlink:href="#DejaVuSans-48"/>
      </g>
     </g>
    </g>
   </g>
   <g id="matplotlib.axis_2">
    <g id="ytick_1">
     <g id="line2d_7">
      <defs>
       <path d="M 0 0 
L -3.5 0 
" id="m741914b8d5" style="stroke:#000000;stroke-width:0.8;"/>
      </defs>
      <g>
       <use style="stroke:#000000;stroke-width:0.8;" x="54" xlink:href="#m741914b8d5" y="216.720776"/>
      </g>
     </g>
     <g id="text_7">
      <!-- 0.70 -->
      <defs>
       <path d="M 10.6875 12.40625 
L 21 12.40625 
L 21 0 
L 10.6875 0 
z
" id="DejaVuSans-46"/>
       <path d="M 8.203125 72.90625 
L 55.078125 72.90625 
L 55.078125 68.703125 
L 28.609375 0 
L 18.3125 0 
L 43.21875 64.59375 
L 8.203125 64.59375 
z
" id="DejaVuSans-55"/>
      </defs>
      <g transform="translate(24.734375 220.519995)scale(0.1 -0.1)">
       <use xlink:href="#DejaVuSans-48"/>
       <use x="63.623047" xlink:href="#DejaVuSans-46"/>
       <use x="95.410156" xlink:href="#DejaVuSans-55"/>
       <use x="159.033203" xlink:href="#DejaVuSans-48"/>
      </g>
     </g>
    </g>
    <g id="ytick_2">
     <g id="line2d_8">
      <g>
       <use style="stroke:#000000;stroke-width:0.8;" x="54" xlink:href="#m741914b8d5" y="168.84793"/>
      </g>
     </g>
     <g id="text_8">
      <!-- 0.75 -->
      <defs>
       <path d="M 10.796875 72.90625 
L 49.515625 72.90625 
L 49.515625 64.59375 
L 19.828125 64.59375 
L 19.828125 46.734375 
Q 21.96875 47.46875 24.109375 47.828125 
Q 26.265625 48.1875 28.421875 48.1875 
Q 40.625 48.1875 47.75 41.5 
Q 54.890625 34.8125 54.890625 23.390625 
Q 54.890625 11.625 47.5625 5.09375 
Q 40.234375 -1.421875 26.90625 -1.421875 
Q 22.3125 -1.421875 17.546875 -0.640625 
Q 12.796875 0.140625 7.71875 1.703125 
L 7.71875 11.625 
Q 12.109375 9.234375 16.796875 8.0625 
Q 21.484375 6.890625 26.703125 6.890625 
Q 35.15625 6.890625 40.078125 11.328125 
Q 45.015625 15.765625 45.015625 23.390625 
Q 45.015625 31 40.078125 35.4375 
Q 35.15625 39.890625 26.703125 39.890625 
Q 22.75 39.890625 18.8125 39.015625 
Q 14.890625 38.140625 10.796875 36.28125 
z
" id="DejaVuSans-53"/>
      </defs>
      <g transform="translate(24.734375 172.647149)scale(0.1 -0.1)">
       <use xlink:href="#DejaVuSans-48"/>
       <use x="63.623047" xlink:href="#DejaVuSans-46"/>
       <use x="95.410156" xlink:href="#DejaVuSans-55"/>
       <use x="159.033203" xlink:href="#DejaVuSans-53"/>
      </g>
     </g>
    </g>
    <g id="ytick_3">
     <g id="line2d_9">
      <g>
       <use style="stroke:#000000;stroke-width:0.8;" x="54" xlink:href="#m741914b8d5" y="120.975083"/>
      </g>
     </g>
     <g id="text_9">
      <!-- 0.80 -->
      <g transform="translate(24.734375 124.774302)scale(0.1 -0.1)">
       <use xlink:href="#DejaVuSans-48"/>
       <use x="63.623047" xlink:href="#DejaVuSans-46"/>
       <use x="95.410156" xlink:href="#DejaVuSans-56"/>
       <use x="159.033203" xlink:href="#DejaVuSans-48"/>
      </g>
     </g>
    </g>
    <g id="ytick_4">
     <g id="line2d_10">
      <g>
       <use style="stroke:#000000;stroke-width:0.8;" x="54" xlink:href="#m741914b8d5" y="73.102237"/>
      </g>
     </g>
     <g id="text_10">
      <!-- 0.85 -->
      <g transform="translate(24.734375 76.901456)scale(0.1 -0.1)">
       <use xlink:href="#DejaVuSans-48"/>
       <use x="63.623047" xlink:href="#DejaVuSans-46"/>
       <use x="95.410156" xlink:href="#DejaVuSans-56"/>
       <use x="159.033203" xlink:href="#DejaVuSans-53"/>
      </g>
     </g>
    </g>
   </g>
   <g id="line2d_11">
    <path clip-path="url(#p66e622aae4)" d="M 69.218182 242.116364 
L 69.52285 228.568348 
L 69.827518 220.493156 
L 70.436855 174.51799 
L 70.741523 172.695949 
L 71.35086 157.85058 
L 71.655528 151.72094 
L 71.960197 151.961262 
L 72.569533 147.372171 
L 73.483538 140.901677 
L 73.788206 141.882113 
L 74.092875 137.947922 
L 74.397543 136.850677 
L 74.702211 134.571929 
L 75.616216 131.184447 
L 75.920885 129.66209 
L 76.225553 129.638154 
L 77.139558 126.644186 
L 77.748894 125.156298 
L 78.053563 123.985328 
L 78.358231 122.149883 
L 78.662899 121.542855 
L 78.967568 120.147841 
L 79.576904 119.132936 
L 79.881572 117.802071 
L 80.186241 116.970999 
L 80.795577 115.82588 
L 81.100246 116.688549 
L 81.404914 116.387907 
L 81.709582 115.754071 
L 82.014251 114.811933 
L 82.318919 114.38778 
L 82.623587 114.318843 
L 82.928256 113.814263 
L 83.232924 113.074149 
L 83.537592 112.709358 
L 84.146929 111.525941 
L 84.756265 110.821253 
L 85.060934 110.911254 
L 85.67027 110.270715 
L 86.584275 108.670804 
L 86.888943 107.813881 
L 87.193612 107.671219 
L 88.412285 106.538548 
L 89.021622 106.053117 
L 89.630958 105.291939 
L 90.849631 104.374695 
L 91.1543 103.866286 
L 91.458968 103.682454 
L 92.372973 102.286482 
L 92.677641 102.097863 
L 92.98231 102.567017 
L 93.286978 102.238609 
L 93.591646 102.213715 
L 94.810319 100.987213 
L 95.114988 100.905829 
L 95.419656 100.651145 
L 95.724324 100.641571 
L 96.028993 100.328482 
L 96.638329 100.135076 
L 97.247666 99.471558 
L 97.857002 99.189109 
L 98.161671 99.262833 
L 98.466339 98.86836 
L 99.685012 98.002819 
L 99.989681 97.600687 
L 100.903686 97.298131 
L 101.513022 96.881637 
L 101.81769 96.961106 
L 102.122359 96.779189 
L 102.427027 96.823232 
L 102.731695 96.569506 
L 103.341032 96.276525 
L 103.6457 96.149183 
L 103.950369 95.874393 
L 104.255037 95.836094 
L 105.778378 94.920766 
L 106.387715 94.724487 
L 107.30172 94.067671 
L 108.215725 93.833094 
L 108.520393 93.630114 
L 109.434398 93.474048 
L 109.739066 93.227982 
L 110.348403 93.212662 
L 111.262408 92.70521 
L 113.090418 92.357653 
L 113.699754 92.146055 
L 114.004423 92.090523 
L 114.309091 91.917223 
L 114.613759 91.892329 
L 115.527764 91.552432 
L 116.137101 91.463389 
L 116.746437 91.27477 
L 117.355774 91.092853 
L 118.879115 90.484868 
L 120.097789 90.124864 
L 120.402457 89.969756 
L 120.707125 90.186141 
L 124.667813 88.971128 
L 124.972482 89.04964 
L 125.886486 88.837084 
L 126.495823 88.604422 
L 129.542506 88.037608 
L 130.151843 87.974416 
L 132.893857 87.443027 
L 134.112531 87.192173 
L 134.417199 87.019831 
L 135.940541 86.763233 
L 137.159214 86.399399 
L 137.463882 86.099715 
L 138.073219 86.115034 
L 139.291892 85.856521 
L 142.643243 85.343324 
L 144.166585 85.068534 
L 145.08059 84.984278 
L 147.517936 84.525656 
L 149.345946 84.455761 
L 149.955283 84.250866 
L 150.259951 83.977033 
L 151.783292 83.773095 
L 153.306634 83.609369 
L 154.525307 83.395857 
L 155.439312 83.367133 
L 157.267322 83.183301 
L 158.181327 83.133513 
L 159.704668 82.845319 
L 160.618673 82.816595 
L 160.923342 82.546592 
L 163.665356 82.235419 
L 163.970025 82.287121 
L 165.188698 82.123396 
L 167.321376 82.017119 
L 173.414742 81.423495 
L 173.71941 81.239664 
L 174.024079 81.338282 
L 174.938084 81.190833 
L 175.54742 81.134343 
L 177.984767 80.984023 
L 181.945455 80.590508 
L 183.164128 80.555082 
L 185.906143 80.248696 
L 187.124816 80.192206 
L 190.171499 79.739329 
L 191.085504 79.791989 
L 192.913514 79.684753 
L 198.702211 79.193578 
L 202.358231 79.03081 
L 202.967568 78.930277 
L 203.881572 78.908256 
L 206.014251 78.698573 
L 206.623587 78.721552 
L 209.67027 78.43623 
L 212.716953 78.322292 
L 213.630958 78.294526 
L 214.849631 78.176759 
L 216.677641 78.067609 
L 219.724324 77.911543 
L 221.552334 77.692286 
L 222.466339 77.664519 
L 223.380344 77.594625 
L 224.903686 77.576433 
L 227.036364 77.449092 
L 228.255037 77.338027 
L 236.176413 76.921533 
L 242.879115 76.695573 
L 246.839803 76.519401 
L 248.058477 76.520358 
L 254.761179 76.172801 
L 256.893857 76.096205 
L 262.987224 75.723754 
L 266.033907 75.649073 
L 266.643243 75.568646 
L 268.471253 75.432687 
L 284.009337 74.998959 
L 284.923342 74.964491 
L 286.142015 74.932895 
L 327.272236 73.621179 
L 333.67027 73.550327 
L 348.294349 73.15394 
L 349.208354 73.065854 
L 350.122359 73.064896 
L 354.387715 72.909788 
L 357.434398 72.904044 
L 358.95774 72.860958 
L 373.581818 72.556487 
L 373.581818 72.556487 
" style="fill:none;stroke:#1f77b4;stroke-linecap:square;stroke-width:1.5;"/>
   </g>
   <g id="line2d_12">
    <path clip-path="url(#p66e622aae4)" d="M 69.218182 197.452913 
L 69.52285 173.89277 
L 69.827518 161.84892 
L 70.436855 149.78975 
L 71.046192 135.969816 
L 71.35086 133.071594 
L 71.655528 127.484833 
L 71.960197 126.979296 
L 73.483538 115.685134 
L 74.092875 112.526484 
L 74.397543 112.561909 
L 77.139558 102.122757 
L 77.444226 101.531048 
L 77.748894 100.627209 
L 78.358231 99.767413 
L 78.967568 98.392504 
L 79.576904 96.693976 
L 79.881572 96.159715 
L 80.186241 95.908861 
L 80.795577 94.794381 
L 81.100246 94.308951 
L 81.404914 94.239056 
L 82.623587 91.930628 
L 82.928256 90.781679 
L 83.232924 90.21678 
L 83.537592 90.079863 
L 83.84226 89.71603 
L 84.146929 89.577198 
L 84.451597 88.957724 
L 85.67027 87.76569 
L 85.974939 87.624944 
L 86.888943 86.495145 
L 88.107617 85.14896 
L 88.412285 84.946937 
L 88.716953 84.411718 
L 89.32629 83.913841 
L 89.935627 83.442772 
L 90.240295 83.393942 
L 91.1543 82.467123 
L 92.677641 81.749031 
L 93.286978 80.978278 
L 94.810319 80.008374 
L 95.114988 79.955714 
L 96.028993 79.468368 
L 98.771007 78.261972 
L 99.075676 77.949842 
L 99.685012 77.757393 
L 100.294349 77.684626 
L 100.903686 77.448134 
L 101.513022 77.134088 
L 102.122359 76.900469 
L 103.036364 76.71185 
L 104.864373 75.933437 
L 106.387715 75.52939 
L 107.911057 74.76534 
L 109.12973 74.357463 
L 109.434398 73.981183 
L 110.043735 73.740861 
L 110.348403 73.65469 
L 111.262408 72.896384 
L 111.871744 72.703935 
L 112.481081 72.651275 
L 117.051106 71.393176 
L 117.660442 71.371155 
L 118.269779 71.177749 
L 118.879115 71.076258 
L 119.183784 70.880937 
L 119.488452 70.824447 
L 119.79312 70.58604 
L 120.402457 70.429975 
L 121.62113 70.136993 
L 124.058477 69.658265 
L 124.363145 69.385389 
L 127.409828 68.811873 
L 128.019165 68.596445 
L 130.456511 68.213462 
L 130.761179 67.922395 
L 134.721867 67.038662 
L 135.331204 66.988875 
L 135.635872 66.793553 
L 136.245209 66.748553 
L 136.549877 66.445039 
L 139.291892 66.03046 
L 139.901229 65.893544 
L 142.643243 65.507689 
L 142.947912 65.53354 
L 143.557248 65.393751 
L 145.08059 65.129493 
L 146.603931 64.961938 
L 146.9086 64.699595 
L 148.431941 64.545445 
L 148.736609 64.349166 
L 156.962654 63.479795 
L 157.57199 63.551604 
L 158.181327 63.385964 
L 159.704668 63.112132 
L 160.314005 62.92064 
L 161.837346 62.822022 
L 163.05602 62.676489 
L 172.805405 61.936374 
L 179.812776 61.164664 
L 181.640786 61.066046 
L 182.250123 60.967428 
L 185.296806 60.904236 
L 187.124816 60.729021 
L 188.038821 60.668701 
L 190.171499 60.547104 
L 191.390172 60.509764 
L 192.304177 60.401571 
L 194.132187 60.382422 
L 199.616216 60.107632 
L 200.834889 60.028163 
L 203.881572 59.860608 
L 204.490909 59.734223 
L 205.709582 59.653797 
L 206.318919 59.495817 
L 207.537592 59.369432 
L 208.146929 59.234431 
L 209.365602 59.130068 
L 210.279607 58.97113 
L 212.716953 58.788256 
L 215.763636 58.670489 
L 216.068305 58.495274 
L 219.724324 58.340166 
L 220.028993 58.189845 
L 224.294349 57.895906 
L 224.903686 57.741756 
L 226.427027 57.724521 
L 230.083047 57.511009 
L 232.825061 57.392284 
L 234.348403 57.276432 
L 235.567076 57.218027 
L 239.832432 57.086855 
L 241.051106 56.997812 
L 241.660442 56.951854 
L 245.925799 56.893449 
L 246.535135 56.788129 
L 250.800491 56.672276 
L 251.10516 56.650255 
L 251.714496 56.495147 
L 252.628501 56.484615 
L 256.893857 56.274932 
L 258.112531 56.197378 
L 259.331204 56.19642 
L 260.549877 56.100674 
L 266.643243 55.761735 
L 267.25258 55.655457 
L 269.994595 55.564499 
L 276.087961 55.431412 
L 277.306634 55.395986 
L 279.134644 55.265772 
L 281.267322 55.244708 
L 283.095332 55.094387 
L 296.196069 54.706617 
L 300.461425 54.727681 
L 301.680098 54.75066 
L 306.859459 54.642468 
L 308.078133 54.653957 
L 309.296806 54.604169 
L 316.913514 54.352358 
L 318.436855 54.350443 
L 323.311548 54.321719 
L 324.530221 54.26523 
L 326.358231 54.309273 
L 327.272236 54.274804 
L 328.186241 54.191505 
L 330.318919 54.13693 
L 333.060934 54.155122 
L 344.333661 53.977992 
L 348.294349 53.875545 
L 353.47371 53.761607 
L 354.083047 53.884162 
L 356.520393 53.839161 
L 357.434398 53.886077 
L 365.355774 53.670649 
L 366.574447 53.64767 
L 373.581818 53.520328 
L 373.581818 53.520328 
" style="fill:none;stroke:#ff7f0e;stroke-linecap:square;stroke-width:1.5;"/>
   </g>
   <g id="line2d_13">
    <path clip-path="url(#p66e622aae4)" d="M 69.218182 173.589256 
L 69.827518 144.049795 
L 70.741523 126.097478 
L 71.35086 117.145256 
L 71.655528 115.245661 
L 71.960197 111.92903 
L 73.483538 102.371695 
L 74.092875 98.772615 
L 74.702211 96.168332 
L 75.311548 93.790009 
L 75.920885 92.363398 
L 76.225553 91.635731 
L 76.530221 90.515506 
L 77.139558 89.21528 
L 77.748894 87.574199 
L 78.053563 86.77185 
L 78.358231 85.110662 
L 78.967568 83.661072 
L 79.272236 82.735211 
L 79.881572 82.057332 
L 80.490909 81.187003 
L 81.404914 79.315175 
L 81.709582 78.997299 
L 82.318919 77.946969 
L 82.928256 77.413666 
L 83.232924 77.110152 
L 83.537592 76.499294 
L 84.146929 75.980353 
L 85.060934 74.879277 
L 85.67027 74.424485 
L 85.974939 73.886394 
L 87.193612 72.81117 
L 88.107617 72.210845 
L 88.412285 71.771372 
L 89.021622 71.42956 
L 89.935627 70.708595 
L 90.240295 70.538167 
L 90.544963 70.114971 
L 90.849631 70.001034 
L 91.1543 69.713797 
L 91.763636 69.416985 
L 92.068305 68.652935 
L 92.98231 68.227824 
L 93.286978 68.048779 
L 94.200983 67.873565 
L 95.419656 67.190898 
L 95.724324 67.040577 
L 96.028993 66.751425 
L 96.638329 66.589615 
L 97.552334 66.436422 
L 98.161671 66.13578 
L 99.075676 65.832267 
L 99.380344 65.708755 
L 99.685012 65.431092 
L 99.989681 65.358325 
L 100.294349 65.120876 
L 101.208354 64.909278 
L 101.513022 64.489912 
L 101.81769 64.315655 
L 102.731695 64.13661 
L 103.036364 63.893416 
L 103.6457 63.608094 
L 103.950369 63.493199 
L 104.255037 63.214579 
L 105.169042 62.893831 
L 105.47371 62.509891 
L 106.692383 62.351911 
L 107.911057 61.784139 
L 109.434398 61.398284 
L 109.739066 61.089025 
L 110.348403 60.912853 
L 110.653071 60.585403 
L 111.262408 60.338379 
L 111.567076 59.996567 
L 112.176413 59.878799 
L 114.004423 59.544647 
L 114.918428 59.324432 
L 119.488452 58.532615 
L 119.79312 58.378464 
L 120.097789 58.468465 
L 121.925799 58.156334 
L 128.628501 57.449731 
L 128.93317 57.302283 
L 130.151843 57.186431 
L 131.065848 56.839831 
L 132.589189 56.734511 
L 134.112531 56.199293 
L 134.721867 56.106419 
L 135.026536 56.254825 
L 135.331204 56.190675 
L 135.635872 55.941737 
L 144.471253 55.14226 
L 145.08059 55.137473 
L 146.603931 54.968003 
L 147.213268 54.937364 
L 147.822604 54.712362 
L 148.736609 54.639595 
L 149.345946 54.438529 
L 150.259951 54.449061 
L 151.173956 54.30257 
L 156.048649 53.778841 
L 157.267322 53.660117 
L 159.095332 53.560541 
L 160.009337 53.392029 
L 163.360688 53.218729 
L 163.970025 53.231176 
L 164.274693 53.176601 
L 164.884029 53.265644 
L 165.493366 53.202452 
L 166.102703 53.057876 
L 166.712039 53.021493 
L 167.016708 53.126813 
L 168.235381 52.876917 
L 168.844717 52.857768 
L 169.149386 52.711277 
L 169.454054 52.712234 
L 169.758722 52.488189 
L 170.368059 52.358933 
L 170.672727 52.251698 
L 171.8914 52.228719 
L 175.242752 51.946269 
L 175.852088 51.935737 
L 176.461425 51.849566 
L 178.289435 51.544137 
L 181.336118 51.4752 
L 182.250123 51.53935 
L 185.296806 51.31339 
L 189.257494 51.122856 
L 191.390172 50.851896 
L 192.304177 50.842321 
L 194.132187 50.74849 
L 210.888943 49.699117 
L 211.193612 49.58135 
L 212.107617 49.531562 
L 212.716953 49.441562 
L 224.294349 48.921662 
L 224.599017 49.03943 
L 227.341032 48.923577 
L 228.864373 48.952301 
L 230.083047 48.870917 
L 233.12973 48.730171 
L 236.785749 48.552084 
L 237.699754 48.490807 
L 239.223096 48.420912 
L 240.137101 48.331869 
L 242.574447 48.280166 
L 243.183784 48.272507 
L 244.402457 48.286868 
L 255.675184 47.979525 
L 257.503194 47.993887 
L 259.026536 47.978567 
L 260.245209 47.92112 
L 264.205897 47.832076 
L 264.815233 47.75548 
L 273.041278 47.667394 
L 274.259951 47.602287 
L 276.392629 47.616649 
L 277.611302 47.651117 
L 279.439312 47.685586 
L 280.048649 47.579308 
L 281.267322 47.570691 
L 283.095332 47.472073 
L 284.009337 47.4242 
L 290.712039 47.191538 
L 291.930713 47.056536 
L 293.149386 46.988557 
L 294.672727 46.909088 
L 298.024079 46.932067 
L 304.726781 46.788448 
L 309.906143 46.626638 
L 311.124816 46.606532 
L 312.038821 46.629511 
L 313.562162 46.759725 
L 314.780835 46.675468 
L 317.52285 46.651532 
L 318.741523 46.655362 
L 325.748894 46.665894 
L 326.662899 46.634298 
L 330.318919 46.530892 
L 330.928256 46.505041 
L 331.84226 46.52419 
L 334.584275 46.47153 
L 344.333661 46.456211 
L 344.942998 46.403551 
L 357.739066 46.2044 
L 358.653071 46.18908 
L 360.176413 46.161314 
L 362.004423 46.186208 
L 362.918428 46.195783 
L 364.441769 46.172804 
L 369.62113 46.021525 
L 373.581818 46.02344 
L 373.581818 46.02344 
" style="fill:none;stroke:#2ca02c;stroke-linecap:square;stroke-width:1.5;"/>
   </g>
   <g id="line2d_14">
    <path clip-path="url(#p66e622aae4)" d="M 69.218182 157.065465 
L 69.52285 135.447045 
L 69.827518 126.641314 
L 71.655528 102.087331 
L 71.960197 101.124129 
L 72.569533 95.801626 
L 73.17887 93.353409 
L 73.788206 89.574326 
L 74.702211 86.716317 
L 75.311548 84.108204 
L 75.920885 81.968288 
L 76.530221 80.219014 
L 78.967568 74.863958 
L 79.272236 74.638955 
L 80.186241 73.614477 
L 80.490909 72.662764 
L 82.928256 70.060396 
L 83.537592 69.131663 
L 83.84226 68.829107 
L 84.146929 67.738563 
L 85.060934 67.021428 
L 85.67027 66.633658 
L 86.279607 66.046737 
L 87.193612 65.286516 
L 88.107617 64.379804 
L 88.412285 63.75267 
L 88.716953 63.532455 
L 89.021622 62.970428 
L 89.630958 62.809575 
L 89.935627 62.457231 
L 90.544963 62.161377 
L 92.068305 60.891789 
L 94.810319 59.830927 
L 95.419656 59.441242 
L 96.028993 59.26507 
L 96.333661 59.036237 
L 98.161671 58.554637 
L 98.466339 58.600594 
L 99.989681 58.176441 
L 100.294349 57.843246 
L 100.599017 57.817395 
L 101.208354 57.224729 
L 103.036364 56.571743 
L 103.341032 56.219399 
L 104.255037 56.032695 
L 104.559705 56.051844 
L 104.864373 55.733968 
L 105.169042 55.64684 
L 105.778378 55.604712 
L 107.30172 55.367262 
L 107.911057 55.043642 
L 108.520393 54.987152 
L 108.825061 55.011088 
L 110.043735 54.606084 
L 110.348403 54.600339 
L 110.95774 54.347571 
L 111.871744 54.327464 
L 112.176413 54.14459 
L 112.785749 54.08044 
L 114.309091 53.810437 
L 114.918428 53.63235 
L 116.137101 53.413093 
L 117.355774 52.955428 
L 118.574447 52.728511 
L 118.879115 52.69117 
L 119.183784 52.433614 
L 120.707125 52.213399 
L 121.316462 51.981695 
L 121.62113 51.956801 
L 121.925799 51.805523 
L 122.230467 51.816055 
L 123.144472 51.569031 
L 124.058477 51.359348 
L 125.27715 51.07594 
L 125.886486 51.059664 
L 126.800491 50.988812 
L 127.409828 51.033812 
L 127.714496 50.780086 
L 128.628501 50.820299 
L 128.93317 50.835619 
L 129.847174 50.59051 
L 130.151843 50.576148 
L 130.456511 50.412423 
L 133.198526 50.20657 
L 133.503194 50.04093 
L 133.807862 50.071568 
L 134.112531 49.906886 
L 136.245209 49.693373 
L 136.854545 49.597627 
L 137.159214 49.654117 
L 138.073219 49.443476 
L 138.682555 49.463583 
L 140.510565 49.325709 
L 141.119902 49.265389 
L 142.033907 49.101664 
L 145.08059 49.063366 
L 145.689926 48.988684 
L 147.213268 48.801023 
L 148.431941 48.641128 
L 153.001966 48.339529 
L 153.915971 48.2974 
L 156.657985 47.873247 
L 159.704668 47.692288 
L 161.22801 47.19824 
L 161.837346 47.195368 
L 163.665356 46.90813 
L 163.970025 46.91579 
L 164.579361 46.748235 
L 169.454054 46.517488 
L 170.063391 46.397806 
L 174.633415 46.291528 
L 175.242752 46.207272 
L 177.680098 45.955461 
L 179.508108 45.895141 
L 181.336118 45.755352 
L 188.952826 45.790778 
L 189.86683 45.795566 
L 191.999509 45.765884 
L 192.913514 45.654819 
L 197.788206 45.641415 
L 198.702211 45.599287 
L 199.616216 45.627053 
L 200.834889 45.650032 
L 205.100246 45.444179 
L 206.623587 45.564818 
L 209.67027 45.36088 
L 210.584275 45.371412 
L 211.193612 45.382902 
L 211.49828 45.498754 
L 213.630958 45.445136 
L 214.849631 45.486307 
L 216.068305 45.445136 
L 217.286978 45.453753 
L 217.896314 45.374284 
L 218.810319 45.433647 
L 220.942998 45.375242 
L 221.857002 45.31588 
L 222.771007 45.258432 
L 225.208354 45.276624 
L 226.122359 45.160772 
L 229.47371 45.136835 
L 231.606388 45.135878 
L 232.825061 44.98077 
L 236.176413 44.97694 
L 237.395086 44.941514 
L 240.746437 45.001834 
L 243.79312 45.019068 
L 245.011794 45.020983 
L 245.62113 44.98077 
L 247.44914 44.902258 
L 248.363145 44.897471 
L 251.10516 44.970238 
L 257.807862 44.795981 
L 266.947912 44.687788 
L 268.166585 44.674383 
L 269.994595 44.658107 
L 273.345946 44.622681 
L 274.564619 44.620766 
L 275.783292 44.594915 
L 283.704668 44.522148 
L 284.618673 44.562361 
L 285.22801 44.523105 
L 286.751351 44.595872 
L 288.579361 44.619808 
L 293.758722 44.657149 
L 294.368059 44.629383 
L 294.977396 44.729916 
L 296.196069 44.665766 
L 300.766093 44.809385 
L 302.594103 44.86779 
L 303.508108 44.857258 
L 304.422113 44.931939 
L 305.03145 44.86779 
L 312.038821 44.919492 
L 313.562162 45.071728 
L 315.085504 44.968323 
L 316.913514 45.012366 
L 318.741523 44.955876 
L 321.788206 45.019068 
L 324.834889 44.883109 
L 326.662899 44.842896 
L 328.795577 44.776831 
L 339.458968 44.900343 
L 343.724324 44.819917 
L 344.333661 44.76247 
L 345.552334 44.824704 
L 350.122359 44.85247 
L 351.036364 44.868747 
L 353.169042 44.845768 
L 355.911057 44.782576 
L 358.653071 44.753852 
L 360.176413 44.700235 
L 363.223096 44.819917 
L 368.097789 44.897471 
L 369.316462 44.923322 
L 370.839803 44.884067 
L 372.058477 44.999919 
L 373.581818 44.975025 
L 373.581818 44.975025 
" style="fill:none;stroke:#d62728;stroke-linecap:square;stroke-width:1.5;"/>
   </g>
   <g id="patch_3">
    <path d="M 54 252 
L 54 34.56 
" style="fill:none;stroke:#000000;stroke-linecap:square;stroke-linejoin:miter;stroke-width:0.8;"/>
   </g>
   <g id="patch_4">
    <path d="M 388.8 252 
L 388.8 34.56 
" style="fill:none;stroke:#000000;stroke-linecap:square;stroke-linejoin:miter;stroke-width:0.8;"/>
   </g>
   <g id="patch_5">
    <path d="M 54 252 
L 388.8 252 
" style="fill:none;stroke:#000000;stroke-linecap:square;stroke-linejoin:miter;stroke-width:0.8;"/>
   </g>
   <g id="patch_6">
    <path d="M 54 34.56 
L 388.8 34.56 
" style="fill:none;stroke:#000000;stroke-linecap:square;stroke-linejoin:miter;stroke-width:0.8;"/>
   </g>
   <g id="text_11">
    <!-- AUC over generations (Validation) -->
    <defs>
     <path d="M 34.1875 63.1875 
L 20.796875 26.90625 
L 47.609375 26.90625 
z
M 28.609375 72.90625 
L 39.796875 72.90625 
L 67.578125 0 
L 57.328125 0 
L 50.6875 18.703125 
L 17.828125 18.703125 
L 11.1875 0 
L 0.78125 0 
z
" id="DejaVuSans-65"/>
     <path d="M 8.6875 72.90625 
L 18.609375 72.90625 
L 18.609375 28.609375 
Q 18.609375 16.890625 22.84375 11.734375 
Q 27.09375 6.59375 36.625 6.59375 
Q 46.09375 6.59375 50.34375 11.734375 
Q 54.59375 16.890625 54.59375 28.609375 
L 54.59375 72.90625 
L 64.5 72.90625 
L 64.5 27.390625 
Q 64.5 13.140625 57.4375 5.859375 
Q 50.390625 -1.421875 36.625 -1.421875 
Q 22.796875 -1.421875 15.734375 5.859375 
Q 8.6875 13.140625 8.6875 27.390625 
z
" id="DejaVuSans-85"/>
     <path d="M 64.40625 67.28125 
L 64.40625 56.890625 
Q 59.421875 61.53125 53.78125 63.8125 
Q 48.140625 66.109375 41.796875 66.109375 
Q 29.296875 66.109375 22.65625 58.46875 
Q 16.015625 50.828125 16.015625 36.375 
Q 16.015625 21.96875 22.65625 14.328125 
Q 29.296875 6.6875 41.796875 6.6875 
Q 48.140625 6.6875 53.78125 8.984375 
Q 59.421875 11.28125 64.40625 15.921875 
L 64.40625 5.609375 
Q 59.234375 2.09375 53.4375 0.328125 
Q 47.65625 -1.421875 41.21875 -1.421875 
Q 24.65625 -1.421875 15.125 8.703125 
Q 5.609375 18.84375 5.609375 36.375 
Q 5.609375 53.953125 15.125 64.078125 
Q 24.65625 74.21875 41.21875 74.21875 
Q 47.75 74.21875 53.53125 72.484375 
Q 59.328125 70.75 64.40625 67.28125 
z
" id="DejaVuSans-67"/>
     <path id="DejaVuSans-32"/>
     <path d="M 30.609375 48.390625 
Q 23.390625 48.390625 19.1875 42.75 
Q 14.984375 37.109375 14.984375 27.296875 
Q 14.984375 17.484375 19.15625 11.84375 
Q 23.34375 6.203125 30.609375 6.203125 
Q 37.796875 6.203125 41.984375 11.859375 
Q 46.1875 17.53125 46.1875 27.296875 
Q 46.1875 37.015625 41.984375 42.703125 
Q 37.796875 48.390625 30.609375 48.390625 
z
M 30.609375 56 
Q 42.328125 56 49.015625 48.375 
Q 55.71875 40.765625 55.71875 27.296875 
Q 55.71875 13.875 49.015625 6.21875 
Q 42.328125 -1.421875 30.609375 -1.421875 
Q 18.84375 -1.421875 12.171875 6.21875 
Q 5.515625 13.875 5.515625 27.296875 
Q 5.515625 40.765625 12.171875 48.375 
Q 18.84375 56 30.609375 56 
z
" id="DejaVuSans-111"/>
     <path d="M 2.984375 54.6875 
L 12.5 54.6875 
L 29.59375 8.796875 
L 46.6875 54.6875 
L 56.203125 54.6875 
L 35.6875 0 
L 23.484375 0 
z
" id="DejaVuSans-118"/>
     <path d="M 56.203125 29.59375 
L 56.203125 25.203125 
L 14.890625 25.203125 
Q 15.484375 15.921875 20.484375 11.0625 
Q 25.484375 6.203125 34.421875 6.203125 
Q 39.59375 6.203125 44.453125 7.46875 
Q 49.3125 8.734375 54.109375 11.28125 
L 54.109375 2.78125 
Q 49.265625 0.734375 44.1875 -0.34375 
Q 39.109375 -1.421875 33.890625 -1.421875 
Q 20.796875 -1.421875 13.15625 6.1875 
Q 5.515625 13.8125 5.515625 26.8125 
Q 5.515625 40.234375 12.765625 48.109375 
Q 20.015625 56 32.328125 56 
Q 43.359375 56 49.78125 48.890625 
Q 56.203125 41.796875 56.203125 29.59375 
z
M 47.21875 32.234375 
Q 47.125 39.59375 43.09375 43.984375 
Q 39.0625 48.390625 32.421875 48.390625 
Q 24.90625 48.390625 20.390625 44.140625 
Q 15.875 39.890625 15.1875 32.171875 
z
" id="DejaVuSans-101"/>
     <path d="M 41.109375 46.296875 
Q 39.59375 47.171875 37.8125 47.578125 
Q 36.03125 48 33.890625 48 
Q 26.265625 48 22.1875 43.046875 
Q 18.109375 38.09375 18.109375 28.8125 
L 18.109375 0 
L 9.078125 0 
L 9.078125 54.6875 
L 18.109375 54.6875 
L 18.109375 46.1875 
Q 20.953125 51.171875 25.484375 53.578125 
Q 30.03125 56 36.53125 56 
Q 37.453125 56 38.578125 55.875 
Q 39.703125 55.765625 41.0625 55.515625 
z
" id="DejaVuSans-114"/>
     <path d="M 45.40625 27.984375 
Q 45.40625 37.75 41.375 43.109375 
Q 37.359375 48.484375 30.078125 48.484375 
Q 22.859375 48.484375 18.828125 43.109375 
Q 14.796875 37.75 14.796875 27.984375 
Q 14.796875 18.265625 18.828125 12.890625 
Q 22.859375 7.515625 30.078125 7.515625 
Q 37.359375 7.515625 41.375 12.890625 
Q 45.40625 18.265625 45.40625 27.984375 
z
M 54.390625 6.78125 
Q 54.390625 -7.171875 48.1875 -13.984375 
Q 42 -20.796875 29.203125 -20.796875 
Q 24.46875 -20.796875 20.265625 -20.09375 
Q 16.0625 -19.390625 12.109375 -17.921875 
L 12.109375 -9.1875 
Q 16.0625 -11.328125 19.921875 -12.34375 
Q 23.78125 -13.375 27.78125 -13.375 
Q 36.625 -13.375 41.015625 -8.765625 
Q 45.40625 -4.15625 45.40625 5.171875 
L 45.40625 9.625 
Q 42.625 4.78125 38.28125 2.390625 
Q 33.9375 0 27.875 0 
Q 17.828125 0 11.671875 7.65625 
Q 5.515625 15.328125 5.515625 27.984375 
Q 5.515625 40.671875 11.671875 48.328125 
Q 17.828125 56 27.875 56 
Q 33.9375 56 38.28125 53.609375 
Q 42.625 51.21875 45.40625 46.390625 
L 45.40625 54.6875 
L 54.390625 54.6875 
z
" id="DejaVuSans-103"/>
     <path d="M 54.890625 33.015625 
L 54.890625 0 
L 45.90625 0 
L 45.90625 32.71875 
Q 45.90625 40.484375 42.875 44.328125 
Q 39.84375 48.1875 33.796875 48.1875 
Q 26.515625 48.1875 22.3125 43.546875 
Q 18.109375 38.921875 18.109375 30.90625 
L 18.109375 0 
L 9.078125 0 
L 9.078125 54.6875 
L 18.109375 54.6875 
L 18.109375 46.1875 
Q 21.34375 51.125 25.703125 53.5625 
Q 30.078125 56 35.796875 56 
Q 45.21875 56 50.046875 50.171875 
Q 54.890625 44.34375 54.890625 33.015625 
z
" id="DejaVuSans-110"/>
     <path d="M 34.28125 27.484375 
Q 23.390625 27.484375 19.1875 25 
Q 14.984375 22.515625 14.984375 16.5 
Q 14.984375 11.71875 18.140625 8.90625 
Q 21.296875 6.109375 26.703125 6.109375 
Q 34.1875 6.109375 38.703125 11.40625 
Q 43.21875 16.703125 43.21875 25.484375 
L 43.21875 27.484375 
z
M 52.203125 31.203125 
L 52.203125 0 
L 43.21875 0 
L 43.21875 8.296875 
Q 40.140625 3.328125 35.546875 0.953125 
Q 30.953125 -1.421875 24.3125 -1.421875 
Q 15.921875 -1.421875 10.953125 3.296875 
Q 6 8.015625 6 15.921875 
Q 6 25.140625 12.171875 29.828125 
Q 18.359375 34.515625 30.609375 34.515625 
L 43.21875 34.515625 
L 43.21875 35.40625 
Q 43.21875 41.609375 39.140625 45 
Q 35.0625 48.390625 27.6875 48.390625 
Q 23 48.390625 18.546875 47.265625 
Q 14.109375 46.140625 10.015625 43.890625 
L 10.015625 52.203125 
Q 14.9375 54.109375 19.578125 55.046875 
Q 24.21875 56 28.609375 56 
Q 40.484375 56 46.34375 49.84375 
Q 52.203125 43.703125 52.203125 31.203125 
z
" id="DejaVuSans-97"/>
     <path d="M 18.3125 70.21875 
L 18.3125 54.6875 
L 36.8125 54.6875 
L 36.8125 47.703125 
L 18.3125 47.703125 
L 18.3125 18.015625 
Q 18.3125 11.328125 20.140625 9.421875 
Q 21.96875 7.515625 27.59375 7.515625 
L 36.8125 7.515625 
L 36.8125 0 
L 27.59375 0 
Q 17.1875 0 13.234375 3.875 
Q 9.28125 7.765625 9.28125 18.015625 
L 9.28125 47.703125 
L 2.6875 47.703125 
L 2.6875 54.6875 
L 9.28125 54.6875 
L 9.28125 70.21875 
z
" id="DejaVuSans-116"/>
     <path d="M 9.421875 54.6875 
L 18.40625 54.6875 
L 18.40625 0 
L 9.421875 0 
z
M 9.421875 75.984375 
L 18.40625 75.984375 
L 18.40625 64.59375 
L 9.421875 64.59375 
z
" id="DejaVuSans-105"/>
     <path d="M 44.28125 53.078125 
L 44.28125 44.578125 
Q 40.484375 46.53125 36.375 47.5 
Q 32.28125 48.484375 27.875 48.484375 
Q 21.1875 48.484375 17.84375 46.4375 
Q 14.5 44.390625 14.5 40.28125 
Q 14.5 37.15625 16.890625 35.375 
Q 19.28125 33.59375 26.515625 31.984375 
L 29.59375 31.296875 
Q 39.15625 29.25 43.1875 25.515625 
Q 47.21875 21.78125 47.21875 15.09375 
Q 47.21875 7.46875 41.1875 3.015625 
Q 35.15625 -1.421875 24.609375 -1.421875 
Q 20.21875 -1.421875 15.453125 -0.5625 
Q 10.6875 0.296875 5.421875 2 
L 5.421875 11.28125 
Q 10.40625 8.6875 15.234375 7.390625 
Q 20.0625 6.109375 24.8125 6.109375 
Q 31.15625 6.109375 34.5625 8.28125 
Q 37.984375 10.453125 37.984375 14.40625 
Q 37.984375 18.0625 35.515625 20.015625 
Q 33.0625 21.96875 24.703125 23.78125 
L 21.578125 24.515625 
Q 13.234375 26.265625 9.515625 29.90625 
Q 5.8125 33.546875 5.8125 39.890625 
Q 5.8125 47.609375 11.28125 51.796875 
Q 16.75 56 26.8125 56 
Q 31.78125 56 36.171875 55.265625 
Q 40.578125 54.546875 44.28125 53.078125 
z
" id="DejaVuSans-115"/>
     <path d="M 31 75.875 
Q 24.46875 64.65625 21.28125 53.65625 
Q 18.109375 42.671875 18.109375 31.390625 
Q 18.109375 20.125 21.3125 9.0625 
Q 24.515625 -2 31 -13.1875 
L 23.1875 -13.1875 
Q 15.875 -1.703125 12.234375 9.375 
Q 8.59375 20.453125 8.59375 31.390625 
Q 8.59375 42.28125 12.203125 53.3125 
Q 15.828125 64.359375 23.1875 75.875 
z
" id="DejaVuSans-40"/>
     <path d="M 28.609375 0 
L 0.78125 72.90625 
L 11.078125 72.90625 
L 34.1875 11.53125 
L 57.328125 72.90625 
L 67.578125 72.90625 
L 39.796875 0 
z
" id="DejaVuSans-86"/>
     <path d="M 9.421875 75.984375 
L 18.40625 75.984375 
L 18.40625 0 
L 9.421875 0 
z
" id="DejaVuSans-108"/>
     <path d="M 45.40625 46.390625 
L 45.40625 75.984375 
L 54.390625 75.984375 
L 54.390625 0 
L 45.40625 0 
L 45.40625 8.203125 
Q 42.578125 3.328125 38.25 0.953125 
Q 33.9375 -1.421875 27.875 -1.421875 
Q 17.96875 -1.421875 11.734375 6.484375 
Q 5.515625 14.40625 5.515625 27.296875 
Q 5.515625 40.1875 11.734375 48.09375 
Q 17.96875 56 27.875 56 
Q 33.9375 56 38.25 53.625 
Q 42.578125 51.265625 45.40625 46.390625 
z
M 14.796875 27.296875 
Q 14.796875 17.390625 18.875 11.75 
Q 22.953125 6.109375 30.078125 6.109375 
Q 37.203125 6.109375 41.296875 11.75 
Q 45.40625 17.390625 45.40625 27.296875 
Q 45.40625 37.203125 41.296875 42.84375 
Q 37.203125 48.484375 30.078125 48.484375 
Q 22.953125 48.484375 18.875 42.84375 
Q 14.796875 37.203125 14.796875 27.296875 
z
" id="DejaVuSans-100"/>
     <path d="M 8.015625 75.875 
L 15.828125 75.875 
Q 23.140625 64.359375 26.78125 53.3125 
Q 30.421875 42.28125 30.421875 31.390625 
Q 30.421875 20.453125 26.78125 9.375 
Q 23.140625 -1.703125 15.828125 -13.1875 
L 8.015625 -13.1875 
Q 14.5 -2 17.703125 9.0625 
Q 20.90625 20.125 20.90625 31.390625 
Q 20.90625 42.671875 17.703125 53.65625 
Q 14.5 64.65625 8.015625 75.875 
z
" id="DejaVuSans-41"/>
    </defs>
    <g transform="translate(119.086875 28.56)scale(0.12 -0.12)">
     <use xlink:href="#DejaVuSans-65"/>
     <use x="68.408203" xlink:href="#DejaVuSans-85"/>
     <use x="141.601562" xlink:href="#DejaVuSans-67"/>
     <use x="211.425781" xlink:href="#DejaVuSans-32"/>
     <use x="243.212891" xlink:href="#DejaVuSans-111"/>
     <use x="304.394531" xlink:href="#DejaVuSans-118"/>
     <use x="363.574219" xlink:href="#DejaVuSans-101"/>
     <use x="425.097656" xlink:href="#DejaVuSans-114"/>
     <use x="466.210938" xlink:href="#DejaVuSans-32"/>
     <use x="497.998047" xlink:href="#DejaVuSans-103"/>
     <use x="561.474609" xlink:href="#DejaVuSans-101"/>
     <use x="622.998047" xlink:href="#DejaVuSans-110"/>
     <use x="686.376953" xlink:href="#DejaVuSans-101"/>
     <use x="747.900391" xlink:href="#DejaVuSans-114"/>
     <use x="789.013672" xlink:href="#DejaVuSans-97"/>
     <use x="850.292969" xlink:href="#DejaVuSans-116"/>
     <use x="889.501953" xlink:href="#DejaVuSans-105"/>
     <use x="917.285156" xlink:href="#DejaVuSans-111"/>
     <use x="978.466797" xlink:href="#DejaVuSans-110"/>
     <use x="1041.845703" xlink:href="#DejaVuSans-115"/>
     <use x="1093.945312" xlink:href="#DejaVuSans-32"/>
     <use x="1125.732422" xlink:href="#DejaVuSans-40"/>
     <use x="1164.746094" xlink:href="#DejaVuSans-86"/>
     <use x="1233.044922" xlink:href="#DejaVuSans-97"/>
     <use x="1294.324219" xlink:href="#DejaVuSans-108"/>
     <use x="1322.107422" xlink:href="#DejaVuSans-105"/>
     <use x="1349.890625" xlink:href="#DejaVuSans-100"/>
     <use x="1413.367188" xlink:href="#DejaVuSans-97"/>
     <use x="1474.646484" xlink:href="#DejaVuSans-116"/>
     <use x="1513.855469" xlink:href="#DejaVuSans-105"/>
     <use x="1541.638672" xlink:href="#DejaVuSans-111"/>
     <use x="1602.820312" xlink:href="#DejaVuSans-110"/>
     <use x="1666.199219" xlink:href="#DejaVuSans-41"/>
    </g>
   </g>
   <g id="legend_1">
    <g id="patch_7">
     <path d="M 248.528125 247 
L 381.8 247 
Q 383.8 247 383.8 245 
L 383.8 186.175 
Q 383.8 184.175 381.8 184.175 
L 248.528125 184.175 
Q 246.528125 184.175 246.528125 186.175 
L 246.528125 245 
Q 246.528125 247 248.528125 247 
z
" style="fill:#ffffff;opacity:0.8;stroke:#cccccc;stroke-linejoin:miter;"/>
    </g>
    <g id="line2d_15">
     <path d="M 250.528125 192.273438 
L 270.528125 192.273438 
" style="fill:none;stroke:#1f77b4;stroke-linecap:square;stroke-width:1.5;"/>
    </g>
    <g id="line2d_16"/>
    <g id="text_12">
     <!-- p1_validation_1_auc -->
     <defs>
      <path d="M 18.109375 8.203125 
L 18.109375 -20.796875 
L 9.078125 -20.796875 
L 9.078125 54.6875 
L 18.109375 54.6875 
L 18.109375 46.390625 
Q 20.953125 51.265625 25.265625 53.625 
Q 29.59375 56 35.59375 56 
Q 45.5625 56 51.78125 48.09375 
Q 58.015625 40.1875 58.015625 27.296875 
Q 58.015625 14.40625 51.78125 6.484375 
Q 45.5625 -1.421875 35.59375 -1.421875 
Q 29.59375 -1.421875 25.265625 0.953125 
Q 20.953125 3.328125 18.109375 8.203125 
z
M 48.6875 27.296875 
Q 48.6875 37.203125 44.609375 42.84375 
Q 40.53125 48.484375 33.40625 48.484375 
Q 26.265625 48.484375 22.1875 42.84375 
Q 18.109375 37.203125 18.109375 27.296875 
Q 18.109375 17.390625 22.1875 11.75 
Q 26.265625 6.109375 33.40625 6.109375 
Q 40.53125 6.109375 44.609375 11.75 
Q 48.6875 17.390625 48.6875 27.296875 
z
" id="DejaVuSans-112"/>
      <path d="M 50.984375 -16.609375 
L 50.984375 -23.578125 
L -0.984375 -23.578125 
L -0.984375 -16.609375 
z
" id="DejaVuSans-95"/>
      <path d="M 8.5 21.578125 
L 8.5 54.6875 
L 17.484375 54.6875 
L 17.484375 21.921875 
Q 17.484375 14.15625 20.5 10.265625 
Q 23.53125 6.390625 29.59375 6.390625 
Q 36.859375 6.390625 41.078125 11.03125 
Q 45.3125 15.671875 45.3125 23.6875 
L 45.3125 54.6875 
L 54.296875 54.6875 
L 54.296875 0 
L 45.3125 0 
L 45.3125 8.40625 
Q 42.046875 3.421875 37.71875 1 
Q 33.40625 -1.421875 27.6875 -1.421875 
Q 18.265625 -1.421875 13.375 4.4375 
Q 8.5 10.296875 8.5 21.578125 
z
M 31.109375 56 
z
" id="DejaVuSans-117"/>
      <path d="M 48.78125 52.59375 
L 48.78125 44.1875 
Q 44.96875 46.296875 41.140625 47.34375 
Q 37.3125 48.390625 33.40625 48.390625 
Q 24.65625 48.390625 19.8125 42.84375 
Q 14.984375 37.3125 14.984375 27.296875 
Q 14.984375 17.28125 19.8125 11.734375 
Q 24.65625 6.203125 33.40625 6.203125 
Q 37.3125 6.203125 41.140625 7.25 
Q 44.96875 8.296875 48.78125 10.40625 
L 48.78125 2.09375 
Q 45.015625 0.34375 40.984375 -0.53125 
Q 36.96875 -1.421875 32.421875 -1.421875 
Q 20.0625 -1.421875 12.78125 6.34375 
Q 5.515625 14.109375 5.515625 27.296875 
Q 5.515625 40.671875 12.859375 48.328125 
Q 20.21875 56 33.015625 56 
Q 37.15625 56 41.109375 55.140625 
Q 45.0625 54.296875 48.78125 52.59375 
z
" id="DejaVuSans-99"/>
     </defs>
     <g transform="translate(278.528125 195.773438)scale(0.1 -0.1)">
      <use xlink:href="#DejaVuSans-112"/>
      <use x="63.476562" xlink:href="#DejaVuSans-49"/>
      <use x="127.099609" xlink:href="#DejaVuSans-95"/>
      <use x="177.099609" xlink:href="#DejaVuSans-118"/>
      <use x="236.279297" xlink:href="#DejaVuSans-97"/>
      <use x="297.558594" xlink:href="#DejaVuSans-108"/>
      <use x="325.341797" xlink:href="#DejaVuSans-105"/>
      <use x="353.125" xlink:href="#DejaVuSans-100"/>
      <use x="416.601562" xlink:href="#DejaVuSans-97"/>
      <use x="477.880859" xlink:href="#DejaVuSans-116"/>
      <use x="517.089844" xlink:href="#DejaVuSans-105"/>
      <use x="544.873047" xlink:href="#DejaVuSans-111"/>
      <use x="606.054688" xlink:href="#DejaVuSans-110"/>
      <use x="669.433594" xlink:href="#DejaVuSans-95"/>
      <use x="719.433594" xlink:href="#DejaVuSans-49"/>
      <use x="783.056641" xlink:href="#DejaVuSans-95"/>
      <use x="833.056641" xlink:href="#DejaVuSans-97"/>
      <use x="894.335938" xlink:href="#DejaVuSans-117"/>
      <use x="957.714844" xlink:href="#DejaVuSans-99"/>
     </g>
    </g>
    <g id="line2d_17">
     <path d="M 250.528125 207.229688 
L 270.528125 207.229688 
" style="fill:none;stroke:#ff7f0e;stroke-linecap:square;stroke-width:1.5;"/>
    </g>
    <g id="line2d_18"/>
    <g id="text_13">
     <!-- p2_validation_1_auc -->
     <g transform="translate(278.528125 210.729688)scale(0.1 -0.1)">
      <use xlink:href="#DejaVuSans-112"/>
      <use x="63.476562" xlink:href="#DejaVuSans-50"/>
      <use x="127.099609" xlink:href="#DejaVuSans-95"/>
      <use x="177.099609" xlink:href="#DejaVuSans-118"/>
      <use x="236.279297" xlink:href="#DejaVuSans-97"/>
      <use x="297.558594" xlink:href="#DejaVuSans-108"/>
      <use x="325.341797" xlink:href="#DejaVuSans-105"/>
      <use x="353.125" xlink:href="#DejaVuSans-100"/>
      <use x="416.601562" xlink:href="#DejaVuSans-97"/>
      <use x="477.880859" xlink:href="#DejaVuSans-116"/>
      <use x="517.089844" xlink:href="#DejaVuSans-105"/>
      <use x="544.873047" xlink:href="#DejaVuSans-111"/>
      <use x="606.054688" xlink:href="#DejaVuSans-110"/>
      <use x="669.433594" xlink:href="#DejaVuSans-95"/>
      <use x="719.433594" xlink:href="#DejaVuSans-49"/>
      <use x="783.056641" xlink:href="#DejaVuSans-95"/>
      <use x="833.056641" xlink:href="#DejaVuSans-97"/>
      <use x="894.335938" xlink:href="#DejaVuSans-117"/>
      <use x="957.714844" xlink:href="#DejaVuSans-99"/>
     </g>
    </g>
    <g id="line2d_19">
     <path d="M 250.528125 222.185937 
L 270.528125 222.185937 
" style="fill:none;stroke:#2ca02c;stroke-linecap:square;stroke-width:1.5;"/>
    </g>
    <g id="line2d_20"/>
    <g id="text_14">
     <!-- p3_validation_1_auc -->
     <defs>
      <path d="M 40.578125 39.3125 
Q 47.65625 37.796875 51.625 33 
Q 55.609375 28.21875 55.609375 21.1875 
Q 55.609375 10.40625 48.1875 4.484375 
Q 40.765625 -1.421875 27.09375 -1.421875 
Q 22.515625 -1.421875 17.65625 -0.515625 
Q 12.796875 0.390625 7.625 2.203125 
L 7.625 11.71875 
Q 11.71875 9.328125 16.59375 8.109375 
Q 21.484375 6.890625 26.8125 6.890625 
Q 36.078125 6.890625 40.9375 10.546875 
Q 45.796875 14.203125 45.796875 21.1875 
Q 45.796875 27.640625 41.28125 31.265625 
Q 36.765625 34.90625 28.71875 34.90625 
L 20.21875 34.90625 
L 20.21875 43.015625 
L 29.109375 43.015625 
Q 36.375 43.015625 40.234375 45.921875 
Q 44.09375 48.828125 44.09375 54.296875 
Q 44.09375 59.90625 40.109375 62.90625 
Q 36.140625 65.921875 28.71875 65.921875 
Q 24.65625 65.921875 20.015625 65.03125 
Q 15.375 64.15625 9.8125 62.3125 
L 9.8125 71.09375 
Q 15.4375 72.65625 20.34375 73.4375 
Q 25.25 74.21875 29.59375 74.21875 
Q 40.828125 74.21875 47.359375 69.109375 
Q 53.90625 64.015625 53.90625 55.328125 
Q 53.90625 49.265625 50.4375 45.09375 
Q 46.96875 40.921875 40.578125 39.3125 
z
" id="DejaVuSans-51"/>
     </defs>
     <g transform="translate(278.528125 225.685937)scale(0.1 -0.1)">
      <use xlink:href="#DejaVuSans-112"/>
      <use x="63.476562" xlink:href="#DejaVuSans-51"/>
      <use x="127.099609" xlink:href="#DejaVuSans-95"/>
      <use x="177.099609" xlink:href="#DejaVuSans-118"/>
      <use x="236.279297" xlink:href="#DejaVuSans-97"/>
      <use x="297.558594" xlink:href="#DejaVuSans-108"/>
      <use x="325.341797" xlink:href="#DejaVuSans-105"/>
      <use x="353.125" xlink:href="#DejaVuSans-100"/>
      <use x="416.601562" xlink:href="#DejaVuSans-97"/>
      <use x="477.880859" xlink:href="#DejaVuSans-116"/>
      <use x="517.089844" xlink:href="#DejaVuSans-105"/>
      <use x="544.873047" xlink:href="#DejaVuSans-111"/>
      <use x="606.054688" xlink:href="#DejaVuSans-110"/>
      <use x="669.433594" xlink:href="#DejaVuSans-95"/>
      <use x="719.433594" xlink:href="#DejaVuSans-49"/>
      <use x="783.056641" xlink:href="#DejaVuSans-95"/>
      <use x="833.056641" xlink:href="#DejaVuSans-97"/>
      <use x="894.335938" xlink:href="#DejaVuSans-117"/>
      <use x="957.714844" xlink:href="#DejaVuSans-99"/>
     </g>
    </g>
    <g id="line2d_21">
     <path d="M 250.528125 237.142188 
L 270.528125 237.142188 
" style="fill:none;stroke:#d62728;stroke-linecap:square;stroke-width:1.5;"/>
    </g>
    <g id="line2d_22"/>
    <g id="text_15">
     <!-- p4_validation_1_auc -->
     <g transform="translate(278.528125 240.642188)scale(0.1 -0.1)">
      <use xlink:href="#DejaVuSans-112"/>
      <use x="63.476562" xlink:href="#DejaVuSans-52"/>
      <use x="127.099609" xlink:href="#DejaVuSans-95"/>
      <use x="177.099609" xlink:href="#DejaVuSans-118"/>
      <use x="236.279297" xlink:href="#DejaVuSans-97"/>
      <use x="297.558594" xlink:href="#DejaVuSans-108"/>
      <use x="325.341797" xlink:href="#DejaVuSans-105"/>
      <use x="353.125" xlink:href="#DejaVuSans-100"/>
      <use x="416.601562" xlink:href="#DejaVuSans-97"/>
      <use x="477.880859" xlink:href="#DejaVuSans-116"/>
      <use x="517.089844" xlink:href="#DejaVuSans-105"/>
      <use x="544.873047" xlink:href="#DejaVuSans-111"/>
      <use x="606.054688" xlink:href="#DejaVuSans-110"/>
      <use x="669.433594" xlink:href="#DejaVuSans-95"/>
      <use x="719.433594" xlink:href="#DejaVuSans-49"/>
      <use x="783.056641" xlink:href="#DejaVuSans-95"/>
      <use x="833.056641" xlink:href="#DejaVuSans-97"/>
      <use x="894.335938" xlink:href="#DejaVuSans-117"/>
      <use x="957.714844" xlink:href="#DejaVuSans-99"/>
     </g>
    </g>
   </g>
  </g>
 </g>
 <defs>
  <clipPath id="p66e622aae4">
   <rect height="217.44" width="334.8" x="54" y="34.56"/>
  </clipPath>
 </defs>
</svg>
