<?xml version="1.0" encoding="utf-8" standalone="no"?>
<!DOCTYPE svg PUBLIC "-//W3C//DTD SVG 1.1//EN"
  "http://www.w3.org/Graphics/SVG/1.1/DTD/svg11.dtd">
<!-- Created with matplotlib (https://matplotlib.org/) -->
<svg height="288pt" version="1.1" viewBox="0 0 432 288" width="432pt" xmlns="http://www.w3.org/2000/svg" xmlns:xlink="http://www.w3.org/1999/xlink">
 <defs>
  <style type="text/css">
*{stroke-linecap:butt;stroke-linejoin:round;}
  </style>
 </defs>
 <g id="figure_1">
  <g id="patch_1">
   <path d="M 0 288 
L 432 288 
L 432 0 
L 0 0 
z
" style="fill:#ffffff;"/>
  </g>
  <g id="axes_1">
   <g id="patch_2">
    <path d="M 54 252 
L 388.8 252 
L 388.8 34.56 
L 54 34.56 
z
" style="fill:#ffffff;"/>
   </g>
   <g id="matplotlib.axis_1">
    <g id="xtick_1">
     <g id="line2d_1">
      <defs>
       <path d="M 0 0 
L 0 3.5 
" id="m0c8eb2ef43" style="stroke:#000000;stroke-width:0.8;"/>
      </defs>
      <g>
       <use style="stroke:#000000;stroke-width:0.8;" x="69.218182" xlink:href="#m0c8eb2ef43" y="252"/>
      </g>
     </g>
     <g id="text_1">
      <!-- 0 -->
      <defs>
       <path d="M 31.78125 66.40625 
Q 24.171875 66.40625 20.328125 58.90625 
Q 16.5 51.421875 16.5 36.375 
Q 16.5 21.390625 20.328125 13.890625 
Q 24.171875 6.390625 31.78125 6.390625 
Q 39.453125 6.390625 43.28125 13.890625 
Q 47.125 21.390625 47.125 36.375 
Q 47.125 51.421875 43.28125 58.90625 
Q 39.453125 66.40625 31.78125 66.40625 
z
M 31.78125 74.21875 
Q 44.046875 74.21875 50.515625 64.515625 
Q 56.984375 54.828125 56.984375 36.375 
Q 56.984375 17.96875 50.515625 8.265625 
Q 44.046875 -1.421875 31.78125 -1.421875 
Q 19.53125 -1.421875 13.0625 8.265625 
Q 6.59375 17.96875 6.59375 36.375 
Q 6.59375 54.828125 13.0625 64.515625 
Q 19.53125 74.21875 31.78125 74.21875 
z
" id="DejaVuSans-48"/>
      </defs>
      <g transform="translate(66.036932 266.598437)scale(0.1 -0.1)">
       <use xlink:href="#DejaVuSans-48"/>
      </g>
     </g>
    </g>
    <g id="xtick_2">
     <g id="line2d_2">
      <g>
       <use style="stroke:#000000;stroke-width:0.8;" x="130.151843" xlink:href="#m0c8eb2ef43" y="252"/>
      </g>
     </g>
     <g id="text_2">
      <!-- 200 -->
      <defs>
       <path d="M 19.1875 8.296875 
L 53.609375 8.296875 
L 53.609375 0 
L 7.328125 0 
L 7.328125 8.296875 
Q 12.9375 14.109375 22.625 23.890625 
Q 32.328125 33.6875 34.8125 36.53125 
Q 39.546875 41.84375 41.421875 45.53125 
Q 43.3125 49.21875 43.3125 52.78125 
Q 43.3125 58.59375 39.234375 62.25 
Q 35.15625 65.921875 28.609375 65.921875 
Q 23.96875 65.921875 18.8125 64.3125 
Q 13.671875 62.703125 7.8125 59.421875 
L 7.8125 69.390625 
Q 13.765625 71.78125 18.9375 73 
Q 24.125 74.21875 28.421875 74.21875 
Q 39.75 74.21875 46.484375 68.546875 
Q 53.21875 62.890625 53.21875 53.421875 
Q 53.21875 48.921875 51.53125 44.890625 
Q 49.859375 40.875 45.40625 35.40625 
Q 44.1875 33.984375 37.640625 27.21875 
Q 31.109375 20.453125 19.1875 8.296875 
z
" id="DejaVuSans-50"/>
      </defs>
      <g transform="translate(120.608093 266.598437)scale(0.1 -0.1)">
       <use xlink:href="#DejaVuSans-50"/>
       <use x="63.623047" xlink:href="#DejaVuSans-48"/>
       <use x="127.246094" xlink:href="#DejaVuSans-48"/>
      </g>
     </g>
    </g>
    <g id="xtick_3">
     <g id="line2d_3">
      <g>
       <use style="stroke:#000000;stroke-width:0.8;" x="191.085504" xlink:href="#m0c8eb2ef43" y="252"/>
      </g>
     </g>
     <g id="text_3">
      <!-- 400 -->
      <defs>
       <path d="M 37.796875 64.3125 
L 12.890625 25.390625 
L 37.796875 25.390625 
z
M 35.203125 72.90625 
L 47.609375 72.90625 
L 47.609375 25.390625 
L 58.015625 25.390625 
L 58.015625 17.1875 
L 47.609375 17.1875 
L 47.609375 0 
L 37.796875 0 
L 37.796875 17.1875 
L 4.890625 17.1875 
L 4.890625 26.703125 
z
" id="DejaVuSans-52"/>
      </defs>
      <g transform="translate(181.541754 266.598437)scale(0.1 -0.1)">
       <use xlink:href="#DejaVuSans-52"/>
       <use x="63.623047" xlink:href="#DejaVuSans-48"/>
       <use x="127.246094" xlink:href="#DejaVuSans-48"/>
      </g>
     </g>
    </g>
    <g id="xtick_4">
     <g id="line2d_4">
      <g>
       <use style="stroke:#000000;stroke-width:0.8;" x="252.019165" xlink:href="#m0c8eb2ef43" y="252"/>
      </g>
     </g>
     <g id="text_4">
      <!-- 600 -->
      <defs>
       <path d="M 33.015625 40.375 
Q 26.375 40.375 22.484375 35.828125 
Q 18.609375 31.296875 18.609375 23.390625 
Q 18.609375 15.53125 22.484375 10.953125 
Q 26.375 6.390625 33.015625 6.390625 
Q 39.65625 6.390625 43.53125 10.953125 
Q 47.40625 15.53125 47.40625 23.390625 
Q 47.40625 31.296875 43.53125 35.828125 
Q 39.65625 40.375 33.015625 40.375 
z
M 52.59375 71.296875 
L 52.59375 62.3125 
Q 48.875 64.0625 45.09375 64.984375 
Q 41.3125 65.921875 37.59375 65.921875 
Q 27.828125 65.921875 22.671875 59.328125 
Q 17.53125 52.734375 16.796875 39.40625 
Q 19.671875 43.65625 24.015625 45.921875 
Q 28.375 48.1875 33.59375 48.1875 
Q 44.578125 48.1875 50.953125 41.515625 
Q 57.328125 34.859375 57.328125 23.390625 
Q 57.328125 12.15625 50.6875 5.359375 
Q 44.046875 -1.421875 33.015625 -1.421875 
Q 20.359375 -1.421875 13.671875 8.265625 
Q 6.984375 17.96875 6.984375 36.375 
Q 6.984375 53.65625 15.1875 63.9375 
Q 23.390625 74.21875 37.203125 74.21875 
Q 40.921875 74.21875 44.703125 73.484375 
Q 48.484375 72.75 52.59375 71.296875 
z
" id="DejaVuSans-54"/>
      </defs>
      <g transform="translate(242.475415 266.598437)scale(0.1 -0.1)">
       <use xlink:href="#DejaVuSans-54"/>
       <use x="63.623047" xlink:href="#DejaVuSans-48"/>
       <use x="127.246094" xlink:href="#DejaVuSans-48"/>
      </g>
     </g>
    </g>
    <g id="xtick_5">
     <g id="line2d_5">
      <g>
       <use style="stroke:#000000;stroke-width:0.8;" x="312.952826" xlink:href="#m0c8eb2ef43" y="252"/>
      </g>
     </g>
     <g id="text_5">
      <!-- 800 -->
      <defs>
       <path d="M 31.78125 34.625 
Q 24.75 34.625 20.71875 30.859375 
Q 16.703125 27.09375 16.703125 20.515625 
Q 16.703125 13.921875 20.71875 10.15625 
Q 24.75 6.390625 31.78125 6.390625 
Q 38.8125 6.390625 42.859375 10.171875 
Q 46.921875 13.96875 46.921875 20.515625 
Q 46.921875 27.09375 42.890625 30.859375 
Q 38.875 34.625 31.78125 34.625 
z
M 21.921875 38.8125 
Q 15.578125 40.375 12.03125 44.71875 
Q 8.5 49.078125 8.5 55.328125 
Q 8.5 64.0625 14.71875 69.140625 
Q 20.953125 74.21875 31.78125 74.21875 
Q 42.671875 74.21875 48.875 69.140625 
Q 55.078125 64.0625 55.078125 55.328125 
Q 55.078125 49.078125 51.53125 44.71875 
Q 48 40.375 41.703125 38.8125 
Q 48.828125 37.15625 52.796875 32.3125 
Q 56.78125 27.484375 56.78125 20.515625 
Q 56.78125 9.90625 50.3125 4.234375 
Q 43.84375 -1.421875 31.78125 -1.421875 
Q 19.734375 -1.421875 13.25 4.234375 
Q 6.78125 9.90625 6.78125 20.515625 
Q 6.78125 27.484375 10.78125 32.3125 
Q 14.796875 37.15625 21.921875 38.8125 
z
M 18.3125 54.390625 
Q 18.3125 48.734375 21.84375 45.5625 
Q 25.390625 42.390625 31.78125 42.390625 
Q 38.140625 42.390625 41.71875 45.5625 
Q 45.3125 48.734375 45.3125 54.390625 
Q 45.3125 60.0625 41.71875 63.234375 
Q 38.140625 66.40625 31.78125 66.40625 
Q 25.390625 66.40625 21.84375 63.234375 
Q 18.3125 60.0625 18.3125 54.390625 
z
" id="DejaVuSans-56"/>
      </defs>
      <g transform="translate(303.409076 266.598437)scale(0.1 -0.1)">
       <use xlink:href="#DejaVuSans-56"/>
       <use x="63.623047" xlink:href="#DejaVuSans-48"/>
       <use x="127.246094" xlink:href="#DejaVuSans-48"/>
      </g>
     </g>
    </g>
    <g id="xtick_6">
     <g id="line2d_6">
      <g>
       <use style="stroke:#000000;stroke-width:0.8;" x="373.886486" xlink:href="#m0c8eb2ef43" y="252"/>
      </g>
     </g>
     <g id="text_6">
      <!-- 1000 -->
      <defs>
       <path d="M 12.40625 8.296875 
L 28.515625 8.296875 
L 28.515625 63.921875 
L 10.984375 60.40625 
L 10.984375 69.390625 
L 28.421875 72.90625 
L 38.28125 72.90625 
L 38.28125 8.296875 
L 54.390625 8.296875 
L 54.390625 0 
L 12.40625 0 
z
" id="DejaVuSans-49"/>
      </defs>
      <g transform="translate(361.161486 266.598437)scale(0.1 -0.1)">
       <use xlink:href="#DejaVuSans-49"/>
       <use x="63.623047" xlink:href="#DejaVuSans-48"/>
       <use x="127.246094" xlink:href="#DejaVuSans-48"/>
       <use x="190.869141" xlink:href="#DejaVuSans-48"/>
      </g>
     </g>
    </g>
   </g>
   <g id="matplotlib.axis_2">
    <g id="ytick_1">
     <g id="line2d_7">
      <defs>
       <path d="M 0 0 
L -3.5 0 
" id="m72dad01831" style="stroke:#000000;stroke-width:0.8;"/>
      </defs>
      <g>
       <use style="stroke:#000000;stroke-width:0.8;" x="54" xlink:href="#m72dad01831" y="233.752198"/>
      </g>
     </g>
     <g id="text_7">
      <!-- 0.40 -->
      <defs>
       <path d="M 10.6875 12.40625 
L 21 12.40625 
L 21 0 
L 10.6875 0 
z
" id="DejaVuSans-46"/>
      </defs>
      <g transform="translate(24.734375 237.551416)scale(0.1 -0.1)">
       <use xlink:href="#DejaVuSans-48"/>
       <use x="63.623047" xlink:href="#DejaVuSans-46"/>
       <use x="95.410156" xlink:href="#DejaVuSans-52"/>
       <use x="159.033203" xlink:href="#DejaVuSans-48"/>
      </g>
     </g>
    </g>
    <g id="ytick_2">
     <g id="line2d_8">
      <g>
       <use style="stroke:#000000;stroke-width:0.8;" x="54" xlink:href="#m72dad01831" y="196.886163"/>
      </g>
     </g>
     <g id="text_8">
      <!-- 0.45 -->
      <defs>
       <path d="M 10.796875 72.90625 
L 49.515625 72.90625 
L 49.515625 64.59375 
L 19.828125 64.59375 
L 19.828125 46.734375 
Q 21.96875 47.46875 24.109375 47.828125 
Q 26.265625 48.1875 28.421875 48.1875 
Q 40.625 48.1875 47.75 41.5 
Q 54.890625 34.8125 54.890625 23.390625 
Q 54.890625 11.625 47.5625 5.09375 
Q 40.234375 -1.421875 26.90625 -1.421875 
Q 22.3125 -1.421875 17.546875 -0.640625 
Q 12.796875 0.140625 7.71875 1.703125 
L 7.71875 11.625 
Q 12.109375 9.234375 16.796875 8.0625 
Q 21.484375 6.890625 26.703125 6.890625 
Q 35.15625 6.890625 40.078125 11.328125 
Q 45.015625 15.765625 45.015625 23.390625 
Q 45.015625 31 40.078125 35.4375 
Q 35.15625 39.890625 26.703125 39.890625 
Q 22.75 39.890625 18.8125 39.015625 
Q 14.890625 38.140625 10.796875 36.28125 
z
" id="DejaVuSans-53"/>
      </defs>
      <g transform="translate(24.734375 200.685382)scale(0.1 -0.1)">
       <use xlink:href="#DejaVuSans-48"/>
       <use x="63.623047" xlink:href="#DejaVuSans-46"/>
       <use x="95.410156" xlink:href="#DejaVuSans-52"/>
       <use x="159.033203" xlink:href="#DejaVuSans-53"/>
      </g>
     </g>
    </g>
    <g id="ytick_3">
     <g id="line2d_9">
      <g>
       <use style="stroke:#000000;stroke-width:0.8;" x="54" xlink:href="#m72dad01831" y="160.020129"/>
      </g>
     </g>
     <g id="text_9">
      <!-- 0.50 -->
      <g transform="translate(24.734375 163.819348)scale(0.1 -0.1)">
       <use xlink:href="#DejaVuSans-48"/>
       <use x="63.623047" xlink:href="#DejaVuSans-46"/>
       <use x="95.410156" xlink:href="#DejaVuSans-53"/>
       <use x="159.033203" xlink:href="#DejaVuSans-48"/>
      </g>
     </g>
    </g>
    <g id="ytick_4">
     <g id="line2d_10">
      <g>
       <use style="stroke:#000000;stroke-width:0.8;" x="54" xlink:href="#m72dad01831" y="123.154094"/>
      </g>
     </g>
     <g id="text_10">
      <!-- 0.55 -->
      <g transform="translate(24.734375 126.953313)scale(0.1 -0.1)">
       <use xlink:href="#DejaVuSans-48"/>
       <use x="63.623047" xlink:href="#DejaVuSans-46"/>
       <use x="95.410156" xlink:href="#DejaVuSans-53"/>
       <use x="159.033203" xlink:href="#DejaVuSans-53"/>
      </g>
     </g>
    </g>
    <g id="ytick_5">
     <g id="line2d_11">
      <g>
       <use style="stroke:#000000;stroke-width:0.8;" x="54" xlink:href="#m72dad01831" y="86.28806"/>
      </g>
     </g>
     <g id="text_11">
      <!-- 0.60 -->
      <g transform="translate(24.734375 90.087279)scale(0.1 -0.1)">
       <use xlink:href="#DejaVuSans-48"/>
       <use x="63.623047" xlink:href="#DejaVuSans-46"/>
       <use x="95.410156" xlink:href="#DejaVuSans-54"/>
       <use x="159.033203" xlink:href="#DejaVuSans-48"/>
      </g>
     </g>
    </g>
    <g id="ytick_6">
     <g id="line2d_12">
      <g>
       <use style="stroke:#000000;stroke-width:0.8;" x="54" xlink:href="#m72dad01831" y="49.422026"/>
      </g>
     </g>
     <g id="text_12">
      <!-- 0.65 -->
      <g transform="translate(24.734375 53.221244)scale(0.1 -0.1)">
       <use xlink:href="#DejaVuSans-48"/>
       <use x="63.623047" xlink:href="#DejaVuSans-46"/>
       <use x="95.410156" xlink:href="#DejaVuSans-54"/>
       <use x="159.033203" xlink:href="#DejaVuSans-53"/>
      </g>
     </g>
    </g>
   </g>
   <g id="line2d_13">
    <path clip-path="url(#pc0669f3b45)" d="M 69.218182 44.443636 
L 69.827518 68.301859 
L 70.132187 68.249509 
L 70.436855 67.883798 
L 70.741523 74.223282 
L 71.046192 74.599315 
L 71.35086 75.560044 
L 71.655528 77.275052 
L 71.960197 84.076835 
L 72.264865 84.679964 
L 73.17887 89.066284 
L 73.788206 98.67431 
L 74.092875 100.54563 
L 74.397543 100.780098 
L 74.702211 103.93878 
L 75.00688 103.350398 
L 75.616216 104.873703 
L 75.920885 105.04771 
L 76.225553 107.464648 
L 76.530221 108.280862 
L 76.834889 107.977823 
L 77.139558 110.660933 
L 77.444226 110.853373 
L 77.748894 110.792176 
L 78.358231 115.124672 
L 78.662899 115.234533 
L 79.272236 118.145475 
L 79.576904 117.94861 
L 79.881572 118.266396 
L 80.186241 119.549334 
L 80.490909 121.67208 
L 80.795577 121.593924 
L 81.100246 123.463769 
L 81.404914 122.372535 
L 81.709582 123.679804 
L 82.014251 124.330121 
L 82.318919 124.339706 
L 82.623587 123.929756 
L 82.928256 125.617483 
L 83.232924 125.434627 
L 83.84226 127.812487 
L 84.451597 127.198298 
L 84.756265 127.657649 
L 85.060934 128.779851 
L 85.365602 128.74446 
L 85.974939 129.609337 
L 86.888943 132.462768 
L 87.193612 132.394935 
L 87.802948 134.11068 
L 88.107617 134.179988 
L 88.716953 133.522298 
L 89.021622 132.828479 
L 89.32629 133.2576 
L 89.630958 134.460907 
L 89.935627 134.50146 
L 90.240295 134.817033 
L 90.544963 135.592695 
L 90.849631 135.429009 
L 91.1543 136.045409 
L 91.458968 135.982 
L 91.763636 136.21573 
L 92.068305 137.36079 
L 92.372973 137.281159 
L 92.677641 137.478761 
L 92.98231 136.973696 
L 93.286978 137.74862 
L 93.591646 137.724289 
L 93.896314 138.59359 
L 94.200983 138.557461 
L 94.810319 140.23634 
L 95.114988 140.159659 
L 95.419656 140.61606 
L 95.724324 140.327768 
L 96.333661 140.722235 
L 96.638329 141.082047 
L 96.942998 141.215502 
L 97.247666 142.126093 
L 97.552334 142.553002 
L 97.857002 142.037615 
L 98.466339 143.347096 
L 98.771007 143.022675 
L 99.380344 143.763682 
L 99.685012 144.094739 
L 99.989681 144.850493 
L 100.294349 144.363861 
L 100.599017 145.073164 
L 100.903686 145.163854 
L 101.208354 144.962566 
L 101.81769 144.909479 
L 102.122359 145.520718 
L 102.427027 145.303945 
L 102.731695 146.109099 
L 103.036364 146.266886 
L 103.950369 145.829655 
L 104.559705 146.497667 
L 104.864373 146.781536 
L 105.169042 147.378766 
L 105.47371 147.532128 
L 105.778378 147.852863 
L 106.083047 147.657473 
L 106.692383 148.088806 
L 106.997052 148.079958 
L 107.30172 148.526774 
L 107.606388 148.7288 
L 107.911057 148.45083 
L 108.215725 148.414701 
L 109.12973 148.672764 
L 109.434398 149.272943 
L 109.739066 149.21322 
L 110.043735 149.680681 
L 110.348403 149.689529 
L 110.653071 150.079571 
L 110.95774 149.885656 
L 111.262408 149.901877 
L 111.567076 150.695971 
L 112.176413 150.424637 
L 112.481081 150.729151 
L 112.785749 150.353855 
L 113.090418 150.968043 
L 113.699754 151.815224 
L 114.004423 151.466472 
L 114.309091 151.797529 
L 114.613759 151.522508 
L 114.918428 151.477531 
L 115.223096 151.579282 
L 115.527764 151.512185 
L 116.746437 152.266465 
L 117.355774 152.133747 
L 117.660442 152.844524 
L 117.965111 153.269958 
L 118.269779 152.91162 
L 118.574447 153.511062 
L 119.183784 153.285442 
L 119.488452 153.281018 
L 119.79312 153.147563 
L 120.402457 153.410786 
L 120.707125 153.134291 
L 121.62113 153.914376 
L 122.230467 154.151056 
L 122.535135 154.625891 
L 122.839803 154.520454 
L 123.144472 154.905335 
L 123.44914 155.483395 
L 123.753808 155.453902 
L 124.058477 154.859621 
L 124.363145 154.881741 
L 124.667813 155.347728 
L 124.972482 155.317498 
L 125.581818 154.866995 
L 126.495823 156.281176 
L 127.10516 156.104956 
L 128.323833 156.536289 
L 128.628501 156.399884 
L 129.237838 157.071583 
L 129.542506 157.128357 
L 129.847174 156.999326 
L 130.151843 157.186606 
L 130.456511 157.243379 
L 130.761179 157.1055 
L 131.065848 156.758222 
L 131.979853 157.167435 
L 132.589189 158.011667 
L 132.893857 157.884111 
L 133.198526 157.576648 
L 133.503194 157.897383 
L 134.112531 158.099409 
L 134.721867 158.055907 
L 135.331204 158.756361 
L 135.635872 158.513045 
L 136.245209 159.33737 
L 136.549877 159.158201 
L 137.463882 159.662528 
L 138.073219 159.315988 
L 138.377887 159.431747 
L 138.682555 159.824739 
L 138.987224 159.873402 
L 139.291892 159.689072 
L 139.59656 159.839485 
L 139.901229 159.678749 
L 140.510565 159.591008 
L 140.815233 159.73626 
L 141.119902 159.668427 
L 141.42457 159.967779 
L 142.033907 160.021604 
L 142.338575 160.250173 
L 142.643243 159.956719 
L 142.947912 160.165381 
L 143.557248 160.172017 
L 143.861916 160.379204 
L 144.471253 160.301785 
L 144.775921 160.718372 
L 145.08059 160.57017 
L 145.385258 160.57017 
L 145.689926 161.18952 
L 146.299263 160.954314 
L 146.603931 161.165188 
L 146.9086 161.207215 
L 147.213268 160.790629 
L 147.517936 161.549332 
L 147.822604 161.561129 
L 148.127273 161.341408 
L 148.431941 161.540484 
L 148.736609 161.500669 
L 149.041278 162.049973 
L 149.345946 161.854583 
L 149.955283 162.171631 
L 150.564619 162.581581 
L 150.869287 162.513747 
L 151.173956 162.109696 
L 151.478624 161.943799 
L 151.783292 162.315408 
L 152.697297 162.507849 
L 153.001966 163.053466 
L 153.306634 162.845542 
L 153.611302 162.867661 
L 153.915971 162.546927 
L 154.220639 162.820473 
L 154.525307 162.864712 
L 154.829975 163.164802 
L 155.134644 163.007015 
L 155.439312 163.309316 
L 156.353317 163.268027 
L 156.962654 162.663424 
L 157.57199 163.113927 
L 158.181327 163.035033 
L 158.790663 163.348394 
L 159.4 163.34692 
L 159.704668 163.575489 
L 160.618673 163.526826 
L 160.923342 163.889588 
L 161.22801 163.98544 
L 161.532678 163.575489 
L 162.142015 164.081291 
L 162.446683 163.964057 
L 162.751351 164.052536 
L 163.05602 163.915394 
L 163.665356 164.205898 
L 163.970025 164.146913 
L 164.274693 164.552439 
L 164.579361 164.365897 
L 165.493366 164.330506 
L 165.798034 164.577508 
L 166.102703 164.626171 
L 166.407371 164.840732 
L 166.712039 164.628383 
L 167.016708 164.564236 
L 167.321376 164.7117 
L 167.626044 164.591517 
L 167.930713 164.817875 
L 168.235381 165.327363 
L 168.844717 165.072988 
L 169.149386 165.272801 
L 170.063391 165.260267 
L 170.368059 165.118701 
L 171.282064 165.678328 
L 173.414742 165.073725 
L 173.71941 165.470403 
L 174.024079 165.272064 
L 175.242752 165.678328 
L 176.156757 166.252701 
L 176.461425 166.330857 
L 176.766093 166.251226 
L 177.070762 166.297677 
L 177.37543 166.116296 
L 177.680098 166.119246 
L 178.594103 166.640531 
L 178.898771 166.400902 
L 179.508108 166.551316 
L 179.812776 166.840345 
L 180.726781 166.429658 
L 181.336118 166.679609 
L 181.640786 166.364036 
L 181.945455 166.431132 
L 182.250123 166.206987 
L 182.859459 166.383206 
L 183.164128 166.644218 
L 183.468796 166.274083 
L 184.078133 166.843295 
L 184.382801 166.65749 
L 185.906143 167.54891 
L 186.515479 167.301908 
L 186.820147 167.370479 
L 187.124816 167.211955 
L 187.429484 167.352046 
L 187.734152 167.211955 
L 188.038821 167.304857 
L 188.343489 166.99592 
L 188.648157 167.184674 
L 188.952826 167.509095 
L 190.171499 167.86006 
L 190.780835 167.597574 
L 191.69484 167.80771 
L 191.999509 167.75831 
L 192.304177 168.086417 
L 192.608845 167.921257 
L 192.913514 167.893239 
L 193.52285 168.143928 
L 193.827518 167.922732 
L 194.132187 168.235356 
L 194.436855 168.079044 
L 194.741523 168.275909 
L 195.046192 168.156463 
L 195.35086 168.230932 
L 195.960197 168.177108 
L 196.264865 168.408626 
L 197.788206 168.728624 
L 198.397543 168.483096 
L 199.00688 168.61139 
L 199.616216 169.101708 
L 199.920885 168.929175 
L 202.358231 168.813415 
L 202.967568 169.326591 
L 203.881572 169.241061 
L 204.186241 169.297835 
L 204.490909 169.609722 
L 204.795577 169.459308 
L 205.100246 169.509446 
L 205.404914 169.158482 
L 205.709582 169.272029 
L 206.014251 169.578754 
L 206.623587 169.432765 
L 206.928256 169.55516 
L 207.84226 169.426866 
L 208.756265 169.707785 
L 209.060934 169.474792 
L 209.365602 169.680505 
L 209.974939 169.353134 
L 210.279607 169.549261 
L 210.888943 169.65691 
L 211.49828 169.286038 
L 212.107617 169.884005 
L 212.412285 169.6982 
L 213.021622 169.764559 
L 213.32629 169.947415 
L 214.240295 169.795527 
L 214.544963 170.004926 
L 214.849631 169.98723 
L 215.1543 170.168611 
L 215.458968 170.116261 
L 216.372973 170.213587 
L 216.677641 170.201053 
L 216.98231 170.378747 
L 217.286978 170.271836 
L 217.591646 170.348517 
L 217.896314 170.283633 
L 218.200983 170.428885 
L 219.724324 170.290269 
L 220.028993 170.502617 
L 220.333661 170.467226 
L 220.638329 170.596257 
L 220.942998 170.491557 
L 221.247666 170.509253 
L 221.552334 170.693583 
L 222.161671 170.582985 
L 222.466339 171.186851 
L 222.771007 171.180215 
L 223.075676 170.97524 
L 224.599017 170.950171 
L 224.903686 170.661878 
L 225.208354 170.661878 
L 225.513022 170.884549 
L 225.81769 170.832937 
L 226.122359 170.618376 
L 226.427027 170.880125 
L 227.341032 171.224454 
L 227.6457 171.442701 
L 228.255037 171.193487 
L 228.559705 171.301873 
L 228.864373 171.232565 
L 229.169042 171.346849 
L 229.778378 171.147773 
L 230.387715 171.122704 
L 231.30172 171.686754 
L 231.911057 171.482516 
L 232.215725 171.362333 
L 232.520393 171.420581 
L 232.825061 171.231827 
L 233.12973 171.21192 
L 233.434398 171.413946 
L 234.043735 171.452286 
L 234.348403 171.55846 
L 234.653071 171.469982 
L 234.95774 171.601962 
L 235.262408 171.514958 
L 235.567076 171.589428 
L 236.176413 171.481042 
L 236.785749 171.733205 
L 237.090418 171.642515 
L 237.395086 171.791454 
L 238.309091 171.790716 
L 238.613759 171.691915 
L 239.832432 171.775233 
L 240.441769 172.395319 
L 240.746437 172.237533 
L 241.355774 172.180022 
L 242.574447 172.162326 
L 242.879115 171.970623 
L 243.183784 172.10334 
L 243.79312 171.962512 
L 244.097789 171.972835 
L 244.402457 172.140206 
L 245.011794 172.127672 
L 245.62113 172.519927 
L 245.925799 172.587023 
L 246.535135 172.317901 
L 249.581818 172.506655 
L 249.886486 172.287671 
L 251.10516 172.626838 
L 251.409828 172.502231 
L 251.714496 172.556793 
L 252.323833 172.435872 
L 252.93317 172.643796 
L 253.237838 172.536885 
L 253.847174 172.782413 
L 254.151843 172.662229 
L 254.456511 172.77209 
L 255.065848 172.581861 
L 255.370516 172.795684 
L 255.979853 172.789786 
L 256.284521 173.150336 
L 256.893857 173.32803 
L 257.198526 173.174667 
L 257.807862 172.718266 
L 258.112531 172.783887 
L 258.721867 173.094299 
L 259.026536 173.198262 
L 260.245209 172.988125 
L 260.549877 173.101673 
L 261.159214 172.985913 
L 261.76855 173.159184 
L 262.377887 173.068493 
L 262.682555 173.243238 
L 262.987224 173.164345 
L 263.291892 173.279367 
L 263.901229 173.145174 
L 264.510565 173.556599 
L 265.119902 173.67752 
L 265.42457 173.575032 
L 265.729238 173.700377 
L 266.033907 173.583143 
L 266.338575 173.690054 
L 268.775921 173.486554 
L 269.08059 173.622958 
L 269.385258 173.566922 
L 269.689926 173.385541 
L 269.994595 173.525632 
L 270.299263 173.810975 
L 270.603931 173.92231 
L 272.127273 173.667198 
L 273.650614 174.021849 
L 275.173956 173.952541 
L 275.478624 174.125811 
L 276.697297 173.928946 
L 277.001966 174.28581 
L 277.306634 174.159728 
L 277.611302 174.50848 
L 278.525307 174.341846 
L 278.829975 174.3765 
L 279.134644 174.257791 
L 279.439312 174.33521 
L 279.74398 174.275487 
L 280.048649 174.36544 
L 280.657985 174.108115 
L 280.962654 174.247469 
L 281.57199 174.058715 
L 282.181327 174.288759 
L 282.485995 174.374288 
L 283.095332 174.246732 
L 283.4 174.299081 
L 283.704668 174.501107 
L 284.009337 174.421477 
L 284.314005 174.488573 
L 284.618673 174.299819 
L 284.923342 174.279174 
L 285.22801 174.09853 
L 286.142015 174.449495 
L 286.751351 174.480462 
L 287.360688 174.666267 
L 287.970025 174.612443 
L 289.188698 174.682488 
L 289.493366 174.927279 
L 290.407371 174.754008 
L 290.712039 174.91032 
L 291.016708 174.699446 
L 291.321376 174.829215 
L 291.626044 175.161009 
L 291.930713 174.833639 
L 292.235381 174.729677 
L 292.540049 174.892625 
L 293.149386 174.842487 
L 293.758722 174.884514 
L 294.063391 174.801197 
L 294.368059 174.955297 
L 294.672727 174.94055 
L 294.977396 174.73705 
L 295.586732 174.918431 
L 296.500737 174.989951 
L 296.805405 175.282667 
L 297.110074 175.141102 
L 297.414742 175.161747 
L 297.71941 175.354925 
L 298.024079 175.228105 
L 299.242752 175.186815 
L 299.54742 174.744423 
L 299.852088 175.139627 
L 300.766093 175.175018 
L 301.070762 174.998061 
L 301.680098 175.250962 
L 301.984767 175.180917 
L 302.594103 175.464048 
L 302.898771 175.311423 
L 303.20344 175.398427 
L 303.812776 175.201562 
L 304.117445 174.886726 
L 304.726781 175.152899 
L 305.640786 175.506813 
L 306.250123 175.36451 
L 306.859459 175.543679 
L 307.164128 175.419071 
L 307.468796 175.087277 
L 308.382801 175.604876 
L 308.687469 175.36451 
L 308.992138 175.721373 
L 309.601474 175.622572 
L 312.343489 175.411698 
L 312.952826 175.772985 
L 313.257494 175.588655 
L 314.171499 175.70294 
L 314.476167 176.00008 
L 315.390172 175.742755 
L 315.69484 175.781096 
L 315.999509 175.648378 
L 316.304177 175.787732 
L 317.218182 175.79658 
L 317.827518 176.005979 
L 319.655528 175.72506 
L 320.569533 175.957316 
L 320.874201 175.899805 
L 321.17887 175.67271 
L 321.483538 175.839344 
L 323.311548 176.077499 
L 323.616216 176.174088 
L 323.920885 176.095932 
L 324.225553 176.168927 
L 324.530221 176.121001 
L 324.834889 176.398971 
L 325.444226 176.18441 
L 326.662899 176.505145 
L 326.967568 176.404132 
L 327.272236 176.4845 
L 327.576904 176.292059 
L 327.881572 176.242659 
L 328.795577 176.426252 
L 329.100246 176.328925 
L 329.404914 175.987546 
L 329.709582 176.055379 
L 330.014251 176.256668 
L 330.318919 176.264778 
L 330.623587 176.100356 
L 330.928256 176.171139 
L 331.537592 176.188097 
L 331.84226 176.356943 
L 332.146929 176.345146 
L 332.451597 176.553071 
L 332.756265 176.502933 
L 333.060934 176.665143 
L 333.365602 176.37169 
L 333.67027 176.483025 
L 334.888943 176.407819 
L 335.49828 176.6386 
L 337.32629 176.584775 
L 337.630958 176.458694 
L 337.935627 176.475652 
L 338.240295 176.637125 
L 338.544963 176.996938 
L 338.849631 177.005786 
L 339.1543 176.842838 
L 339.458968 176.879704 
L 340.068305 176.635651 
L 340.677641 176.800073 
L 341.286978 176.958597 
L 341.591646 176.851686 
L 342.505651 177.107536 
L 342.810319 176.967445 
L 343.114988 177.282281 
L 343.724324 176.934266 
L 344.638329 177.073619 
L 344.942998 177.31546 
L 345.247666 177.179793 
L 345.552334 177.251313 
L 346.161671 177.204862 
L 346.466339 177.255737 
L 347.380344 177.005786 
L 348.294349 176.887077 
L 348.599017 176.592886 
L 349.208354 176.907722 
L 349.81769 176.895188 
L 350.731695 177.243203 
L 351.036364 177.12007 
L 351.341032 177.282281 
L 351.6457 177.20265 
L 351.950369 176.974818 
L 352.559705 177.170208 
L 353.169042 177.036016 
L 353.47371 177.2056 
L 353.778378 177.005048 
L 354.083047 177.252051 
L 354.692383 177.159886 
L 354.997052 177.021269 
L 355.30172 177.019795 
L 355.911057 177.3044 
L 356.215725 177.353064 
L 356.520393 177.170208 
L 357.12973 177.143665 
L 358.348403 177.42827 
L 358.653071 177.723199 
L 358.95774 177.446703 
L 359.262408 177.379607 
L 359.871744 177.51085 
L 360.176413 177.419423 
L 360.481081 177.468823 
L 360.785749 177.103849 
L 361.090418 177.280069 
L 361.395086 177.187166 
L 362.004423 177.462187 
L 362.309091 177.443017 
L 362.613759 177.544767 
L 364.746437 177.440805 
L 365.051106 177.610389 
L 365.355774 177.49979 
L 365.660442 177.78071 
L 366.269779 177.577209 
L 367.183784 177.89057 
L 367.79312 177.64578 
L 368.097789 177.6679 
L 368.402457 177.243203 
L 368.707125 177.284493 
L 369.011794 177.532233 
L 370.230467 177.651679 
L 370.839803 177.577946 
L 371.144472 177.663476 
L 372.058477 177.588269 
L 372.363145 177.960616 
L 372.667813 177.992321 
L 372.972482 177.52191 
L 373.581818 177.600066 
L 373.581818 177.600066 
" style="fill:none;stroke:#1f77b4;stroke-linecap:square;stroke-width:1.5;"/>
   </g>
   <g id="line2d_14">
    <path clip-path="url(#pc0669f3b45)" d="M 69.218182 47.286745 
L 69.52285 64.970644 
L 70.132187 82.878689 
L 71.046192 100.180656 
L 72.264865 113.723026 
L 72.569533 115.19693 
L 73.17887 120.130342 
L 73.788206 124.692145 
L 74.092875 124.564589 
L 74.397543 127.390002 
L 75.616216 132.085997 
L 76.225553 134.61427 
L 76.530221 135.860342 
L 76.834889 137.776638 
L 77.444226 139.304367 
L 77.748894 138.988794 
L 78.358231 141.507481 
L 78.662899 142.373096 
L 79.272236 144.487731 
L 79.881572 145.264867 
L 80.490909 147.677381 
L 81.100246 148.498019 
L 81.404914 148.399955 
L 81.709582 148.585022 
L 82.014251 149.803813 
L 82.623587 151.066844 
L 82.928256 152.243608 
L 83.232924 152.709594 
L 83.84226 152.899086 
L 84.146929 154.094283 
L 84.756265 155.027731 
L 85.060934 155.064597 
L 86.279607 156.69555 
L 86.584275 157.93941 
L 86.888943 158.212956 
L 87.193612 159.124284 
L 87.49828 159.200228 
L 87.802948 158.9053 
L 88.107617 159.231196 
L 88.412285 159.394144 
L 88.716953 160.305472 
L 89.021622 160.226579 
L 89.32629 160.665285 
L 89.630958 161.452743 
L 90.240295 161.980665 
L 90.544963 162.660474 
L 90.849631 162.989319 
L 91.1543 162.732732 
L 91.458968 163.102867 
L 92.068305 163.282773 
L 92.372973 163.424339 
L 92.677641 163.928666 
L 92.98231 164.789119 
L 93.286978 164.950592 
L 93.591646 165.325889 
L 93.896314 165.23741 
L 94.505651 165.687176 
L 94.810319 165.870769 
L 95.114988 165.892151 
L 95.419656 166.206249 
L 95.724324 166.338967 
L 96.028993 166.602928 
L 96.638329 166.774724 
L 96.942998 167.275364 
L 97.552334 167.437575 
L 97.857002 167.603472 
L 98.771007 168.517013 
L 99.075676 168.622449 
L 99.685012 169.154058 
L 99.989681 169.280139 
L 100.294349 169.094335 
L 100.599017 169.269817 
L 101.208354 170.159763 
L 101.513022 170.004926 
L 101.81769 170.195154 
L 102.122359 170.580773 
L 102.427027 170.335245 
L 103.036364 170.661878 
L 103.341032 170.378747 
L 103.6457 171.001046 
L 103.950369 171.149247 
L 104.559705 172.100391 
L 104.864373 172.03477 
L 105.169042 172.175598 
L 105.778378 172.603981 
L 106.083047 172.519189 
L 106.387715 172.749971 
L 106.692383 172.837712 
L 107.30172 173.308122 
L 108.215725 173.904615 
L 108.520393 174.350694 
L 110.653071 174.974467 
L 110.95774 175.438979 
L 111.262408 175.460361 
L 111.871744 175.739069 
L 112.176413 175.932984 
L 113.090418 176.038421 
L 113.699754 176.497034 
L 114.613759 176.870856 
L 115.223096 176.66883 
L 115.527764 176.825142 
L 115.832432 177.139241 
L 116.137101 177.200438 
L 116.441769 177.38993 
L 116.746437 177.775548 
L 117.051106 177.790295 
L 117.660442 178.096283 
L 118.574447 178.181075 
L 119.79312 178.813696 
L 120.402457 179.080606 
L 120.707125 178.992865 
L 121.316462 179.157287 
L 121.925799 179.565026 
L 122.535135 180.000045 
L 122.839803 179.817927 
L 123.44914 180.407783 
L 124.058477 180.437276 
L 124.667813 180.794877 
L 125.581818 180.736628 
L 126.495823 181.141417 
L 127.10516 181.277084 
L 127.409828 181.173859 
L 128.019165 181.472474 
L 128.93317 181.764453 
L 129.237838 181.675238 
L 131.065848 182.627119 
L 131.370516 182.349149 
L 131.979853 182.292375 
L 132.589189 182.693477 
L 132.893857 182.892554 
L 133.198526 182.866748 
L 133.807862 183.357803 
L 134.112531 183.241307 
L 135.026536 183.741947 
L 135.331204 183.907107 
L 135.635872 183.54582 
L 136.245209 183.640197 
L 136.854545 184.435029 
L 137.159214 184.380467 
L 137.463882 184.557424 
L 138.073219 184.641479 
L 138.987224 184.906914 
L 139.291892 184.847928 
L 139.59656 185.111889 
L 140.510565 185.218801 
L 140.815233 185.393546 
L 141.119902 185.3235 
L 142.338575 185.621378 
L 142.643243 185.494559 
L 143.557248 185.661193 
L 144.166585 185.886076 
L 145.385258 186.204599 
L 145.689926 186.074093 
L 146.603931 186.343215 
L 146.9086 186.599065 
L 147.213268 186.628558 
L 147.517936 187.041457 
L 147.822604 187.050305 
L 148.127273 186.924961 
L 148.431941 186.960352 
L 148.736609 187.187447 
L 151.173956 187.45362 
L 151.478624 187.413804 
L 152.697297 187.802372 
L 153.001966 188.084766 
L 153.306634 188.103937 
L 153.611302 187.994076 
L 153.915971 188.003661 
L 154.829975 188.631858 
L 155.134644 188.496929 
L 155.439312 188.794069 
L 155.74398 188.895082 
L 156.048649 188.788908 
L 156.353317 188.889183 
L 156.657985 188.502827 
L 156.962654 188.391492 
L 157.267322 188.445316 
L 157.57199 188.368635 
L 157.876658 188.526421 
L 158.181327 188.418035 
L 159.095332 188.952593 
L 160.009337 189.122914 
L 160.314005 188.999781 
L 161.532678 189.073513 
L 161.837346 189.113329 
L 162.446683 188.875911 
L 162.751351 189.004205 
L 163.05602 188.997569 
L 163.360688 188.870013 
L 164.274693 189.392036 
L 169.758722 190.331382 
L 170.063391 190.299678 
L 170.977396 190.531196 
L 171.282064 190.929349 
L 172.805405 190.773775 
L 173.110074 190.812853 
L 173.414742 190.664651 
L 173.71941 190.833498 
L 174.024079 191.134325 
L 174.938084 191.011929 
L 175.54742 191.213218 
L 176.156757 191.392387 
L 176.461425 191.566395 
L 176.766093 191.611371 
L 177.070762 191.480865 
L 177.680098 191.696163 
L 178.594103 192.023533 
L 179.20344 192.015423 
L 179.508108 191.975608 
L 179.812776 192.240306 
L 180.117445 192.25284 
L 180.422113 192.06851 
L 180.726781 192.199016 
L 181.03145 192.184269 
L 181.336118 192.280858 
L 182.250123 191.893765 
L 183.164128 192.209338 
L 183.468796 192.118648 
L 184.078133 192.283808 
L 184.687469 192.446755 
L 184.992138 192.678274 
L 185.296806 192.735048 
L 185.906143 193.072003 
L 186.210811 192.900208 
L 186.515479 193.187025 
L 187.734152 192.935599 
L 188.952826 193.008594 
L 190.171499 192.981313 
L 190.780835 193.1391 
L 191.085504 192.825001 
L 192.304177 193.228315 
L 192.608845 193.040299 
L 194.436855 193.431079 
L 194.741523 193.846927 
L 196.264865 193.712735 
L 196.569533 193.83808 
L 196.874201 193.580755 
L 197.483538 193.666284 
L 198.702211 193.99218 
L 199.00688 193.993654 
L 199.920885 194.255403 
L 200.225553 194.264251 
L 200.530221 194.457429 
L 201.444226 194.414664 
L 202.358231 194.293006 
L 203.272236 194.53706 
L 203.881572 194.450056 
L 204.186241 194.570976 
L 204.490909 194.94701 
L 205.100246 194.935213 
L 205.404914 194.728026 
L 206.014251 194.879914 
L 207.84226 195.202123 
L 208.756265 195.336315 
L 209.365602 195.385716 
L 209.67027 195.598064 
L 210.584275 195.750689 
L 210.888943 195.554562 
L 211.802948 195.658524 
L 212.107617 195.792717 
L 212.412285 195.609861 
L 212.716953 195.773546 
L 213.630958 195.791979 
L 213.935627 195.704976 
L 215.1543 196.063313 
L 215.458968 196.049304 
L 216.068305 196.484324 
L 216.677641 196.399532 
L 216.98231 196.619253 
L 217.591646 196.687087 
L 217.896314 196.546996 
L 218.200983 196.66423 
L 218.505651 196.440084 
L 218.810319 196.522664 
L 219.114988 196.403218 
L 219.724324 196.704045 
L 220.028993 196.933352 
L 220.333661 196.930403 
L 220.638329 197.050586 
L 220.942998 197.035102 
L 221.247666 197.167083 
L 221.857002 196.988651 
L 222.161671 197.051323 
L 222.466339 197.610212 
L 222.771007 197.557125 
L 223.075676 197.369846 
L 223.380344 197.458324 
L 223.989681 197.334454 
L 224.599017 197.646341 
L 225.208354 197.707539 
L 225.513022 197.622747 
L 225.81769 197.73187 
L 226.122359 197.676571 
L 226.427027 197.87491 
L 227.6457 197.879334 
L 227.950369 197.980347 
L 228.255037 197.921362 
L 228.559705 198.002467 
L 228.864373 197.933159 
L 229.169042 198.101268 
L 229.47371 197.913988 
L 230.083047 198.153618 
L 230.387715 197.761363 
L 230.692383 197.862376 
L 230.997052 198.104217 
L 231.606388 198.210391 
L 233.739066 198.316565 
L 234.043735 198.310667 
L 234.653071 198.587899 
L 235.871744 198.388823 
L 236.176413 198.313616 
L 236.481081 198.661632 
L 237.090418 198.451495 
L 237.699754 198.748635 
L 238.309091 198.783289 
L 238.613759 198.683014 
L 238.918428 198.725041 
L 239.223096 198.614443 
L 239.527764 198.873243 
L 239.832432 198.806884 
L 240.137101 198.918219 
L 241.051106 198.889464 
L 242.574447 199.053149 
L 242.879115 199.047988 
L 243.183784 199.167434 
L 243.488452 199.045776 
L 245.62113 199.265497 
L 245.925799 199.457201 
L 247.144472 199.580333 
L 247.44914 199.518398 
L 247.753808 199.91139 
L 248.972482 199.573697 
L 249.581818 199.612775 
L 249.886486 199.482269 
L 250.800491 199.658489 
L 251.10516 199.522085 
L 251.714496 199.829548 
L 252.93317 199.825124 
L 253.237838 199.548628 
L 253.542506 199.899593 
L 254.456511 200.204844 
L 255.065848 199.840607 
L 256.893857 200.449634 
L 257.198526 200.360418 
L 257.503194 200.139222 
L 258.417199 200.274152 
L 260.245209 200.29406 
L 261.159214 200.451846 
L 262.377887 200.574241 
L 262.682555 200.46733 
L 263.59656 200.722443 
L 263.901229 200.682628 
L 264.510565 200.79765 
L 264.815233 200.800599 
L 265.119902 200.935529 
L 265.42457 200.925943 
L 265.729238 201.191379 
L 266.033907 201.189167 
L 266.643243 201.018846 
L 267.861916 201.589532 
L 268.166585 201.334419 
L 268.471253 201.447229 
L 268.775921 201.363912 
L 269.385258 201.392667 
L 269.689926 201.074882 
L 269.994595 201.286493 
L 270.603931 201.428059 
L 271.213268 201.507689 
L 276.392629 201.722987 
L 276.697297 201.7193 
L 277.001966 202.042984 
L 277.306634 201.905843 
L 277.611302 202.11008 
L 277.915971 202.17349 
L 279.134644 201.802618 
L 280.048649 201.95893 
L 280.657985 201.898469 
L 280.962654 201.994321 
L 281.267322 201.706029 
L 281.57199 201.725936 
L 281.876658 201.924276 
L 282.181327 201.980312 
L 282.485995 202.259757 
L 282.790663 201.881511 
L 284.009337 202.257545 
L 284.923342 202.210356 
L 285.22801 202.006856 
L 286.142015 202.156532 
L 286.751351 202.270079 
L 287.360688 202.406483 
L 287.970025 202.463257 
L 288.274693 202.5945 
L 288.579361 202.493487 
L 289.188698 202.626942 
L 289.493366 202.600399 
L 289.798034 202.734591 
L 290.102703 202.53404 
L 290.407371 202.764821 
L 291.626044 202.674131 
L 291.930713 202.300309 
L 293.149386 202.888691 
L 294.672727 202.724269 
L 294.977396 202.496436 
L 295.586732 202.4404 
L 295.8914 202.64685 
L 296.196069 202.62473 
L 296.805405 202.862885 
L 297.414742 202.890903 
L 297.71941 203.064911 
L 298.024079 202.817171 
L 298.633415 202.889428 
L 298.938084 203.056063 
L 299.54742 202.924082 
L 299.852088 203.034681 
L 300.461425 202.972008 
L 300.766093 202.96316 
L 301.070762 202.716895 
L 301.37543 202.805374 
L 301.984767 203.228596 
L 302.289435 203.135693 
L 302.898771 203.324448 
L 303.508108 203.18067 
L 304.422113 203.222697 
L 305.03145 203.257351 
L 305.336118 203.269886 
L 305.640786 203.156338 
L 305.945455 202.877631 
L 306.859459 203.320761 
L 307.164128 203.303065 
L 307.468796 203.171822 
L 308.078133 203.289056 
L 308.382801 203.434308 
L 308.687469 203.437258 
L 308.992138 203.596519 
L 309.906143 203.502879 
L 310.515479 203.311176 
L 311.124816 203.405553 
L 311.734152 203.362051 
L 312.038821 203.111362 
L 312.952826 203.445368 
L 313.257494 203.210163 
L 313.562162 203.542695 
L 314.171499 203.491819 
L 314.476167 203.746195 
L 315.390172 203.505091 
L 315.69484 203.633385 
L 315.999509 203.554492 
L 316.304177 203.696795 
L 316.608845 203.316337 
L 317.52285 203.951907 
L 317.827518 203.888498 
L 318.436855 204.097897 
L 319.046192 203.912092 
L 319.35086 203.950433 
L 319.655528 203.836148 
L 320.569533 204.010156 
L 320.874201 203.960755 
L 321.17887 203.722601 
L 321.788206 203.825826 
L 322.397543 203.688684 
L 323.00688 203.884074 
L 323.616216 203.950433 
L 324.530221 204.038174 
L 324.834889 204.339001 
L 325.444226 204.254946 
L 326.053563 204.153933 
L 326.358231 204.356697 
L 326.662899 204.185638 
L 327.272236 204.310983 
L 327.881572 203.805918 
L 328.186241 204.099372 
L 328.490909 204.06693 
L 328.795577 204.177528 
L 329.404914 204.028589 
L 330.318919 204.308033 
L 330.928256 203.955594 
L 331.537592 204.200385 
L 331.84226 204.536603 
L 332.451597 204.590427 
L 333.060934 204.705449 
L 333.974939 204.48499 
L 334.888943 204.395037 
L 335.193612 204.361858 
L 335.802948 204.823421 
L 337.021622 204.603699 
L 337.32629 204.598538 
L 337.630958 204.406097 
L 338.240295 204.603699 
L 338.544963 204.725357 
L 340.372973 204.758536 
L 341.286978 205.136782 
L 341.896314 204.990792 
L 342.505651 205.065262 
L 342.810319 205.058626 
L 343.114988 205.387471 
L 343.419656 205.160376 
L 344.638329 205.012912 
L 344.942998 205.227472 
L 345.247666 205.172911 
L 345.552334 205.284246 
L 345.857002 205.030608 
L 346.466339 205.220099 
L 347.075676 205.024709 
L 347.989681 205.133095 
L 348.294349 205.120561 
L 348.903686 204.807199 
L 349.513022 205.130883 
L 350.122359 205.122773 
L 350.427027 205.341757 
L 350.731695 205.411802 
L 351.036364 205.352079 
L 351.341032 205.523875 
L 352.255037 205.436871 
L 353.169042 205.670602 
L 353.47371 205.603506 
L 353.778378 205.347656 
L 354.997052 205.529036 
L 355.606388 205.526824 
L 355.911057 205.722214 
L 356.215725 205.777514 
L 357.434398 205.512078 
L 357.739066 205.572538 
L 358.043735 205.321849 
L 358.653071 205.706731 
L 358.95774 205.572538 
L 359.567076 205.663966 
L 360.176413 205.719265 
L 361.395086 205.745071 
L 361.699754 205.627837 
L 362.309091 205.703781 
L 362.613759 206.054009 
L 363.832432 206.008295 
L 364.441769 206.064331 
L 365.355774 205.983226 
L 365.965111 206.093087 
L 366.269779 206.043686 
L 366.574447 206.12258 
L 367.488452 206.008295 
L 368.097789 206.047373 
L 368.402457 205.902858 
L 369.011794 206.014193 
L 369.925799 206.031889 
L 370.535135 206.093824 
L 371.44914 206.231703 
L 372.058477 206.067281 
L 372.363145 206.309122 
L 372.667813 206.400549 
L 372.972482 206.118893 
L 373.27715 206.5023 
L 373.581818 206.444051 
L 373.581818 206.444051 
" style="fill:none;stroke:#ff7f0e;stroke-linecap:square;stroke-width:1.5;"/>
   </g>
   <g id="line2d_15">
    <path clip-path="url(#pc0669f3b45)" d="M 69.218182 50.632706 
L 69.827518 86.730452 
L 70.741523 111.111436 
L 71.655528 123.329577 
L 72.264865 129.574683 
L 72.569533 133.177232 
L 72.874201 134.410032 
L 75.311548 148.014336 
L 75.616216 148.809905 
L 75.920885 150.339108 
L 76.225553 151.100023 
L 76.530221 152.397708 
L 77.444226 154.815382 
L 78.662899 159.069723 
L 79.576904 161.070811 
L 79.881572 162.100111 
L 80.186241 162.350062 
L 80.795577 163.563692 
L 81.100246 164.233179 
L 81.709582 166.047726 
L 82.318919 167.360894 
L 82.928256 168.031856 
L 83.232924 168.101164 
L 83.537592 168.973414 
L 83.84226 169.112768 
L 84.756265 170.560865 
L 85.060934 170.991461 
L 85.365602 171.091736 
L 85.974939 172.202141 
L 86.279607 173.041212 
L 86.888943 173.920836 
L 87.193612 174.136133 
L 87.49828 174.736313 
L 87.802948 174.938338 
L 88.107617 174.926541 
L 88.412285 175.315847 
L 88.716953 175.368196 
L 89.021622 175.700728 
L 89.32629 175.683032 
L 89.630958 176.26994 
L 89.935627 176.584775 
L 90.544963 177.652416 
L 90.849631 177.906054 
L 91.1543 178.539413 
L 91.458968 178.775355 
L 91.763636 178.835078 
L 92.068305 179.780323 
L 92.677641 180.177739 
L 94.200983 181.178283 
L 94.505651 181.740859 
L 94.810319 182.003345 
L 95.114988 181.842609 
L 96.333661 182.714122 
L 97.247666 183.365177 
L 98.161671 184.058258 
L 98.771007 184.558899 
L 99.075676 184.545627 
L 99.380344 184.821385 
L 99.685012 184.728482 
L 99.989681 185.328662 
L 100.294349 185.417877 
L 100.599017 185.686262 
L 100.903686 185.775478 
L 101.208354 186.008471 
L 101.513022 186.64183 
L 101.81769 186.501001 
L 102.427027 186.610125 
L 103.036364 186.971412 
L 103.341032 186.844593 
L 104.559705 187.903385 
L 104.864373 188.03684 
L 105.47371 188.609001 
L 106.692383 189.116278 
L 107.606388 190.046777 
L 107.911057 190.035717 
L 108.520393 190.407326 
L 109.12973 191.017828 
L 109.434398 190.68161 
L 109.739066 191.151283 
L 110.043735 191.101145 
L 110.348403 191.199946 
L 110.653071 191.76842 
L 111.262408 192.224822 
L 111.871744 192.774863 
L 112.176413 192.772651 
L 113.090418 193.195873 
L 113.395086 193.38389 
L 113.699754 193.378729 
L 114.004423 193.252647 
L 114.613759 193.666284 
L 114.918428 193.580017 
L 116.137101 193.812273 
L 116.441769 193.624994 
L 116.746437 194.034207 
L 118.269779 194.644708 
L 118.879115 194.582773 
L 119.183784 194.66904 
L 119.488452 194.607105 
L 120.097789 195.078253 
L 120.402457 195.106271 
L 120.707125 194.903508 
L 121.011794 195.045811 
L 121.316462 195.499263 
L 121.62113 195.637142 
L 121.925799 195.651888 
L 122.535135 196.260915 
L 123.144472 196.190133 
L 123.44914 196.516766 
L 123.753808 196.544047 
L 124.363145 196.334647 
L 126.191155 196.930403 
L 126.495823 197.314547 
L 127.10516 197.11547 
L 127.714496 197.177405 
L 128.93317 197.549752 
L 129.237838 197.409661 
L 130.151843 197.767262 
L 130.456511 198.107166 
L 131.370516 198.50237 
L 131.675184 198.340897 
L 132.284521 198.559144 
L 133.503194 199.269184 
L 133.807862 199.045038 
L 134.112531 199.199876 
L 134.417199 199.166696 
L 134.721867 199.277294 
L 135.026536 199.561163 
L 135.635872 199.750654 
L 135.940541 199.893694 
L 136.245209 200.210742 
L 136.549877 200.199683 
L 136.854545 200.575716 
L 137.159214 200.41498 
L 137.463882 200.523366 
L 137.76855 200.358206 
L 140.510565 200.914146 
L 140.815233 200.832304 
L 141.42457 200.942902 
L 141.729238 200.938478 
L 142.338575 201.223084 
L 142.643243 201.087417 
L 143.25258 201.395617 
L 143.861916 201.586583 
L 144.166585 201.699393 
L 144.471253 201.512851 
L 144.775921 201.742157 
L 145.08059 201.647043 
L 145.689926 201.919114 
L 145.994595 202.024551 
L 146.299263 201.864553 
L 147.213268 201.919852 
L 147.517936 202.416068 
L 147.822604 202.570169 
L 148.736609 202.425654 
L 149.041278 202.804636 
L 149.345946 202.661596 
L 149.650614 202.876157 
L 149.955283 202.736803 
L 151.173956 203.242605 
L 151.478624 203.276522 
L 151.783292 203.493294 
L 152.392629 203.467488 
L 152.697297 203.56039 
L 153.306634 204.006469 
L 153.915971 203.939373 
L 154.525307 204.052183 
L 155.74398 204.462133 
L 156.353317 204.441488 
L 156.657985 204.140662 
L 159.4 204.900839 
L 159.704668 204.765172 
L 160.314005 204.971622 
L 160.618673 204.857337 
L 161.532678 205.157427 
L 162.142015 205.181758 
L 162.446683 204.830794 
L 163.05602 205.092543 
L 163.360688 205.0107 
L 163.665356 205.098441 
L 163.970025 205.013649 
L 164.579361 205.109501 
L 164.884029 205.096967 
L 165.493366 205.398531 
L 165.798034 205.393369 
L 166.407371 205.734749 
L 167.626044 205.870416 
L 167.930713 205.7318 
L 168.540049 206.43078 
L 168.844717 206.256772 
L 169.149386 206.379167 
L 169.454054 206.321656 
L 169.758722 206.609949 
L 170.368059 206.910775 
L 171.8914 207.41584 
L 172.196069 207.151142 
L 172.500737 207.117963 
L 173.110074 207.350219 
L 173.414742 207.23151 
L 175.242752 207.541922 
L 175.852088 207.802196 
L 176.156757 207.783763 
L 176.766093 207.934177 
L 177.070762 207.885513 
L 177.37543 208.137677 
L 177.984767 208.352237 
L 178.594103 208.488642 
L 178.898771 208.480531 
L 179.20344 208.616198 
L 179.812776 208.528457 
L 180.422113 208.52477 
L 181.03145 208.580807 
L 181.336118 208.706889 
L 181.945455 208.650115 
L 182.250123 208.412698 
L 182.554791 208.60735 
L 183.164128 208.734169 
L 183.468796 208.45325 
L 183.773464 208.489379 
L 184.078133 208.709838 
L 184.382801 208.779883 
L 184.687469 209.085871 
L 185.601474 209.170663 
L 185.906143 209.293059 
L 186.515479 209.28716 
L 186.820147 209.473702 
L 187.124816 209.792225 
L 187.429484 209.38891 
L 187.734152 209.537849 
L 189.257494 209.571766 
L 189.562162 209.524577 
L 189.86683 209.76863 
L 190.476167 209.745773 
L 190.780835 209.799598 
L 191.085504 209.72734 
L 192.304177 210.108535 
L 193.827518 210.19259 
L 194.132187 210.378395 
L 194.436855 210.380607 
L 194.741523 210.958666 
L 195.046192 210.787608 
L 195.655528 210.894519 
L 195.960197 210.835533 
L 196.264865 210.64383 
L 196.569533 210.823736 
L 196.874201 210.669636 
L 197.483538 210.820787 
L 197.788206 210.937284 
L 198.092875 210.934334 
L 198.397543 211.1253 
L 199.00688 210.929173 
L 200.530221 211.302995 
L 200.834889 211.120139 
L 201.444226 211.071476 
L 202.053563 211.211567 
L 202.358231 211.173964 
L 202.967568 211.499122 
L 203.272236 211.445298 
L 203.576904 211.524191 
L 203.881572 211.319216 
L 204.186241 211.409169 
L 204.490909 211.77488 
L 204.795577 211.637001 
L 205.100246 211.704835 
L 205.404914 211.364192 
L 206.014251 211.968795 
L 206.623587 211.987228 
L 206.928256 212.114785 
L 208.146929 212.159761 
L 208.451597 212.304276 
L 208.756265 212.028518 
L 209.365602 212.18778 
L 209.67027 212.131006 
L 209.974939 212.207687 
L 210.584275 212.59773 
L 210.888943 212.573398 
L 211.193612 212.727498 
L 211.49828 212.499666 
L 211.802948 212.633121 
L 212.107617 212.961229 
L 212.412285 212.622061 
L 213.630958 212.949432 
L 214.240295 212.954593 
L 215.763636 213.268692 
L 216.068305 213.472192 
L 216.372973 213.149983 
L 216.677641 213.280489 
L 216.98231 213.56362 
L 218.200983 213.846751 
L 219.114988 213.404359 
L 220.028993 213.727305 
L 220.333661 213.726568 
L 220.638329 214.072371 
L 221.857002 213.946289 
L 222.161671 214.013386 
L 222.466339 214.272185 
L 222.771007 214.309051 
L 223.075676 214.216886 
L 223.685012 214.255227 
L 223.989681 214.183707 
L 224.294349 214.307577 
L 225.513022 214.244904 
L 225.81769 214.351816 
L 227.036364 214.370986 
L 228.255037 214.580385 
L 228.864373 214.578911 
L 229.169042 214.697619 
L 229.47371 214.613565 
L 230.083047 214.74407 
L 230.387715 214.500755 
L 230.997052 214.759554 
L 231.606388 214.915129 
L 232.215725 214.801581 
L 232.520393 214.885636 
L 232.825061 214.804531 
L 233.12973 214.859092 
L 233.434398 214.77725 
L 234.043735 214.996971 
L 234.348403 214.952732 
L 235.871744 215.255771 
L 236.176413 215.255771 
L 236.481081 215.403972 
L 237.090418 215.195311 
L 237.699754 215.595676 
L 238.309091 215.622957 
L 238.613759 215.458534 
L 240.441769 215.97982 
L 240.746437 215.769683 
L 243.488452 216.108851 
L 245.316462 216.215025 
L 245.62113 216.352167 
L 245.925799 216.627187 
L 246.535135 216.563778 
L 247.144472 216.657418 
L 247.44914 216.680275 
L 247.753808 216.875665 
L 248.058477 216.610229 
L 248.363145 216.944973 
L 248.667813 216.591059 
L 249.581818 216.621289 
L 250.495823 216.670689 
L 250.800491 216.824789 
L 251.409828 216.825527 
L 252.019165 216.905895 
L 252.93317 217.061469 
L 253.237838 216.903683 
L 253.542506 217.194924 
L 253.847174 217.151422 
L 254.151843 217.50976 
L 255.370516 217.144049 
L 255.675184 217.139625 
L 255.979853 217.51271 
L 256.284521 217.665335 
L 256.589189 217.573907 
L 256.893857 217.632893 
L 257.198526 217.541465 
L 257.503194 217.304785 
L 258.112531 217.357872 
L 258.721867 217.438978 
L 259.331204 217.721371 
L 260.245209 217.590128 
L 260.549877 217.596764 
L 260.854545 217.327642 
L 261.463882 217.481005 
L 262.073219 217.590866 
L 262.377887 217.434554 
L 263.59656 217.637317 
L 263.901229 217.574645 
L 264.510565 217.917499 
L 265.119902 218.048742 
L 265.42457 218.009664 
L 265.729238 218.132796 
L 266.643243 217.946254 
L 267.25258 218.166713 
L 267.557248 218.220537 
L 267.861916 218.459429 
L 268.166585 218.283947 
L 268.775921 218.369476 
L 269.385258 218.357679 
L 269.689926 218.163764 
L 269.994595 218.39602 
L 270.603931 218.422563 
L 270.9086 218.443946 
L 271.213268 218.352518 
L 272.736609 218.626801 
L 273.041278 218.618691 
L 273.345946 218.815555 
L 273.955283 218.700533 
L 274.259951 218.774265 
L 274.564619 218.547171 
L 274.869287 218.685049 
L 275.783292 218.724865 
L 276.697297 218.808919 
L 277.001966 219.116382 
L 277.306634 219.049286 
L 277.611302 219.164308 
L 278.829975 219.050761 
L 279.134644 218.944586 
L 280.962654 219.059608 
L 281.876658 219.157672 
L 282.485995 219.373707 
L 282.790663 219.221082 
L 283.095332 219.21887 
L 283.704668 219.44449 
L 284.314005 219.495365 
L 284.618673 219.36191 
L 285.532678 219.403937 
L 286.446683 219.743105 
L 286.751351 219.704027 
L 287.360688 219.838219 
L 287.970025 219.949554 
L 288.274693 220.19582 
L 289.493366 220.09112 
L 289.798034 220.328537 
L 290.102703 220.164852 
L 290.407371 220.326325 
L 292.235381 220.245957 
L 292.540049 220.581438 
L 292.844717 220.648534 
L 293.149386 220.502545 
L 293.758722 220.411855 
L 294.368059 220.378675 
L 294.672727 220.406693 
L 294.977396 220.282086 
L 295.282064 220.342546 
L 295.586732 220.237847 
L 295.8914 220.494434 
L 296.196069 220.303468 
L 296.500737 220.402269 
L 296.805405 220.651484 
L 297.414742 220.692036 
L 297.71941 220.846136 
L 298.024079 220.543098 
L 298.938084 220.762082 
L 299.242752 220.984015 
L 299.54742 220.742174 
L 300.156757 220.849823 
L 300.766093 220.91397 
L 301.070762 220.658857 
L 301.37543 220.787151 
L 301.680098 221.148438 
L 302.289435 221.082079 
L 302.594103 221.286317 
L 303.20344 221.234704 
L 303.508108 221.093139 
L 303.812776 221.11747 
L 304.117445 220.92208 
L 304.726781 221.162447 
L 305.336118 221.537006 
L 305.640786 221.50014 
L 305.945455 221.321708 
L 306.554791 221.609263 
L 307.164128 221.584194 
L 307.468796 221.308436 
L 307.773464 221.573872 
L 308.687469 221.610738 
L 308.992138 221.851842 
L 309.296806 221.795068 
L 309.601474 221.919675 
L 311.124816 221.646867 
L 311.734152 221.727972 
L 312.038821 221.626222 
L 313.86683 222.01184 
L 314.171499 221.887233 
L 314.476167 222.136448 
L 315.390172 222.025112 
L 315.69484 222.24852 
L 315.999509 222.060504 
L 316.304177 222.293497 
L 316.608845 222.033223 
L 317.218182 222.191009 
L 317.52285 222.503633 
L 317.827518 222.351008 
L 318.741523 222.309718 
L 319.960197 222.272852 
L 320.264865 222.398196 
L 320.569533 222.40262 
L 321.483538 222.073038 
L 322.092875 222.288336 
L 322.397543 222.293497 
L 323.00688 222.533863 
L 323.311548 222.456445 
L 323.920885 222.533126 
L 324.530221 222.528702 
L 324.834889 222.811833 
L 325.748894 222.665107 
L 326.662899 222.779391 
L 327.576904 222.584739 
L 327.881572 222.47709 
L 328.186241 222.760221 
L 328.490909 222.531652 
L 329.709582 222.653309 
L 330.318919 222.963721 
L 330.623587 222.73294 
L 331.537592 222.929067 
L 331.84226 223.211461 
L 333.67027 223.152476 
L 334.584275 223.13478 
L 335.193612 222.981417 
L 335.802948 223.448141 
L 336.107617 223.435607 
L 336.412285 223.293304 
L 338.240295 223.313949 
L 338.849631 223.389155 
L 339.1543 223.433395 
L 339.458968 223.688508 
L 340.372973 223.513763 
L 340.98231 223.540306 
L 341.896314 223.677448 
L 342.810319 223.663439 
L 343.114988 223.939934 
L 343.419656 223.647955 
L 344.638329 223.622149 
L 344.942998 223.805004 
L 345.247666 223.614038 
L 345.552334 223.737908 
L 347.380344 223.701779 
L 348.294349 223.768138 
L 348.599017 223.519661 
L 349.208354 223.593393 
L 349.81769 223.746756 
L 350.427027 223.928137 
L 350.731695 223.999657 
L 351.036364 223.883898 
L 351.341032 224.02915 
L 351.6457 224.03726 
L 351.950369 223.900856 
L 352.864373 224.209793 
L 353.169042 224.066016 
L 354.692383 224.380852 
L 355.30172 224.274678 
L 355.606388 224.266567 
L 355.911057 224.444261 
L 356.215725 224.274678 
L 356.520393 224.34546 
L 357.434398 224.228226 
L 357.739066 224.343248 
L 358.043735 224.05938 
L 358.653071 224.60426 
L 358.95774 224.371267 
L 360.481081 224.474492 
L 360.785749 224.307857 
L 361.090418 224.508408 
L 362.309091 224.683153 
L 362.613759 225.059187 
L 363.527764 224.913197 
L 364.137101 225.08573 
L 364.746437 224.859373 
L 365.355774 224.993565 
L 365.660442 225.149877 
L 367.79312 225.051076 
L 368.097789 225.213287 
L 368.402457 225.079094 
L 369.316462 225.05845 
L 369.62113 224.876331 
L 371.144472 225.402778 
L 371.753808 225.338631 
L 372.058477 225.1602 
L 372.363145 225.358539 
L 372.667813 225.405728 
L 372.972482 225.19854 
L 373.581818 225.593007 
L 373.581818 225.593007 
" style="fill:none;stroke:#2ca02c;stroke-linecap:square;stroke-width:1.5;"/>
   </g>
   <g id="line2d_16">
    <path clip-path="url(#pc0669f3b45)" d="M 69.218182 56.80703 
L 69.827518 98.508413 
L 70.132187 109.219471 
L 71.046192 128.702433 
L 71.35086 133.737596 
L 71.960197 139.72169 
L 72.569533 145.649749 
L 72.874201 146.98135 
L 73.788206 153.464611 
L 76.225553 164.72571 
L 76.834889 166.086804 
L 77.444226 168.233144 
L 78.053563 170.38612 
L 78.358231 171.541502 
L 79.272236 173.452637 
L 79.576904 173.606737 
L 79.881572 173.919361 
L 81.100246 177.287442 
L 81.709582 177.805041 
L 82.623587 179.345304 
L 83.537592 180.913585 
L 83.84226 181.538833 
L 84.146929 182.874858 
L 84.756265 183.595958 
L 85.365602 184.531618 
L 85.67027 184.446089 
L 85.974939 184.808113 
L 86.584275 186.218608 
L 87.193612 186.450864 
L 88.107617 187.837764 
L 88.412285 188.599416 
L 88.716953 188.71665 
L 89.021622 189.554984 
L 89.32629 189.338949 
L 91.1543 191.321604 
L 91.458968 192.060399 
L 91.763636 192.488783 
L 92.98231 192.892834 
L 93.591646 193.687666 
L 93.896314 193.932457 
L 94.200983 193.931719 
L 95.114988 194.629962 
L 96.028993 195.014106 
L 96.333661 195.39825 
L 96.942998 195.570783 
L 97.857002 196.434923 
L 98.161671 196.407642 
L 98.466339 196.656857 
L 99.075676 196.878053 
L 99.380344 197.203211 
L 99.685012 197.290215 
L 100.903686 198.349008 
L 101.208354 198.770755 
L 104.559705 200.690738 
L 104.864373 201.126495 
L 106.692383 202.092385 
L 106.997052 202.140311 
L 107.911057 202.80095 
L 108.215725 202.838553 
L 109.12973 203.224909 
L 109.434398 203.182882 
L 110.043735 203.814029 
L 110.348403 203.800019 
L 110.95774 204.331628 
L 111.567076 204.391351 
L 112.176413 204.663422 
L 112.785749 204.744527 
L 113.090418 204.822683 
L 114.004423 205.371987 
L 114.309091 205.518714 
L 114.613759 205.336596 
L 115.223096 205.571801 
L 116.441769 206.042949 
L 116.746437 206.466171 
L 117.355774 206.74709 
L 118.269779 207.332523 
L 118.574447 207.287546 
L 119.183784 207.718142 
L 119.79312 208.004222 
L 120.097789 208.048461 
L 120.402457 208.229842 
L 120.707125 207.979153 
L 122.535135 209.078498 
L 122.839803 209.013614 
L 123.144472 209.159604 
L 123.44914 209.546697 
L 123.753808 209.581351 
L 124.363145 209.360155 
L 125.27715 210.033329 
L 125.581818 209.995725 
L 125.886486 210.100425 
L 126.495823 210.716087 
L 127.409828 210.553877 
L 127.714496 210.909266 
L 129.237838 211.09507 
L 129.542506 211.337649 
L 129.847174 211.246958 
L 130.456511 211.729166 
L 131.979853 211.885478 
L 132.589189 212.181881 
L 133.198526 212.012297 
L 133.503194 212.29764 
L 133.807862 212.351465 
L 134.112531 212.658927 
L 134.417199 212.755517 
L 134.721867 212.576348 
L 135.026536 212.950906 
L 135.635872 212.926575 
L 136.245209 213.50316 
L 136.854545 213.782604 
L 137.159214 213.649149 
L 138.682555 214.017072 
L 138.987224 214.259651 
L 139.59656 214.271448 
L 140.510565 214.627574 
L 141.119902 214.65338 
L 141.42457 214.794208 
L 141.729238 214.612827 
L 142.033907 214.772826 
L 142.338575 215.065542 
L 142.947912 215.201947 
L 143.861916 215.235126 
L 144.471253 215.139274 
L 145.08059 215.298536 
L 145.385258 215.180564 
L 145.994595 215.488764 
L 146.299263 215.342775 
L 146.9086 215.69079 
L 147.213268 215.7542 
L 147.822604 216.440645 
L 148.736609 216.51364 
L 149.041278 216.840273 
L 149.345946 216.762117 
L 149.650614 216.896309 
L 149.955283 216.707555 
L 150.259951 217.025341 
L 151.173956 216.913268 
L 151.478624 216.849121 
L 152.392629 217.179441 
L 153.001966 217.423494 
L 153.306634 217.691141 
L 153.915971 217.653538 
L 154.525307 217.97206 
L 154.829975 218.094456 
L 155.134644 218.067912 
L 155.439312 218.363578 
L 156.353317 218.394545 
L 156.962654 218.132059 
L 157.57199 218.353255 
L 158.181327 218.387172 
L 158.485995 218.744035 
L 159.095332 218.758782 
L 159.704668 218.736662 
L 160.314005 218.93795 
L 160.618673 218.883389 
L 160.923342 219.186428 
L 162.142015 219.475457 
L 162.446683 219.41131 
L 162.751351 219.707713 
L 163.665356 219.813887 
L 163.970025 219.841906 
L 164.274693 220.096281 
L 164.579361 220.186234 
L 164.884029 220.133147 
L 166.712039 220.57259 
L 167.930713 220.669917 
L 168.235381 221.006135 
L 169.454054 221.024568 
L 169.758722 221.261248 
L 170.977396 221.512674 
L 171.282064 221.733871 
L 171.8914 221.739032 
L 172.196069 221.495716 
L 172.500737 221.490555 
L 173.110074 221.702903 
L 173.414742 221.705115 
L 174.024079 221.996357 
L 174.633415 221.997831 
L 176.156757 222.509532 
L 176.766093 222.626029 
L 177.070762 222.575153 
L 177.680098 222.741051 
L 177.984767 222.776442 
L 178.594103 223.282981 
L 179.20344 223.244641 
L 179.508108 223.02197 
L 180.117445 223.520399 
L 180.726781 223.344179 
L 181.03145 223.565375 
L 181.945455 223.60519 
L 182.250123 223.336068 
L 183.164128 223.628047 
L 183.468796 223.496067 
L 184.078133 223.64648 
L 184.382801 223.741595 
L 184.687469 223.963528 
L 185.601474 224.015878 
L 185.906143 224.30712 
L 186.515479 224.308594 
L 186.820147 224.523892 
L 187.124816 224.475229 
L 187.429484 224.248871 
L 187.734152 224.242236 
L 188.038821 224.351359 
L 189.257494 224.26583 
L 189.86683 224.376428 
L 191.390172 224.611633 
L 191.69484 224.520943 
L 192.913514 224.842415 
L 193.218182 224.809972 
L 194.132187 225.188955 
L 194.436855 225.149877 
L 194.741523 225.527385 
L 195.046192 225.519275 
L 195.35086 225.656417 
L 196.264865 225.42711 
L 197.788206 225.674112 
L 199.311548 225.998533 
L 199.616216 226.200559 
L 199.920885 225.978626 
L 200.530221 226.038349 
L 201.444226 226.248485 
L 202.358231 226.171804 
L 202.967568 226.833918 
L 203.272236 226.758711 
L 203.576904 226.883318 
L 203.881572 226.614933 
L 204.186241 226.650325 
L 204.490909 227.142855 
L 205.100246 227.02046 
L 205.404914 226.763135 
L 205.709582 226.996866 
L 209.060934 227.429673 
L 209.67027 227.626537 
L 209.974939 227.499718 
L 210.279607 227.776951 
L 210.584275 227.89271 
L 211.49828 227.73861 
L 211.802948 227.703219 
L 212.107617 227.879438 
L 212.412285 227.677413 
L 213.32629 227.765891 
L 213.935627 227.819715 
L 214.240295 227.927364 
L 214.544963 227.902295 
L 215.763636 228.207546 
L 216.068305 228.279066 
L 216.372973 228.093261 
L 216.677641 228.18174 
L 216.98231 228.43759 
L 217.286978 228.484779 
L 217.896314 228.446438 
L 218.200983 228.593902 
L 218.810319 228.253997 
L 219.114988 228.135289 
L 220.028993 228.557773 
L 220.333661 228.672796 
L 220.638329 228.983208 
L 222.161671 228.927171 
L 222.466339 229.222837 
L 223.075676 229.193344 
L 223.685012 229.187445 
L 223.989681 229.067999 
L 224.294349 229.242744 
L 225.513022 229.264864 
L 226.427027 229.554631 
L 227.036364 229.540622 
L 227.6457 229.677026 
L 228.255037 229.731588 
L 228.559705 229.880527 
L 228.864373 229.786887 
L 229.169042 229.966056 
L 230.083047 230.022092 
L 230.387715 229.831126 
L 230.692383 229.845135 
L 230.997052 230.139326 
L 231.30172 230.221169 
L 231.606388 230.121631 
L 231.911057 230.139326 
L 232.215725 230.042 
L 234.348403 230.479231 
L 236.176413 230.512411 
L 236.481081 230.802915 
L 237.090418 230.69969 
L 238.004423 230.976923 
L 238.309091 230.937845 
L 238.613759 230.620797 
L 239.223096 230.681257 
L 239.527764 230.962176 
L 241.051106 231.141345 
L 241.965111 231.160516 
L 243.183784 231.329362 
L 243.488452 231.35738 
L 243.79312 231.270376 
L 244.402457 231.428163 
L 245.62113 231.529913 
L 245.925799 231.815256 
L 247.44914 231.821892 
L 247.753808 232.121982 
L 248.058477 231.917744 
L 248.363145 232.138203 
L 248.667813 231.993688 
L 248.972482 232.113871 
L 249.886486 231.919219 
L 250.191155 232.169908 
L 251.409828 232.277556 
L 252.93317 232.299676 
L 253.237838 232.099125 
L 254.151843 232.715525 
L 254.456511 232.767875 
L 255.065848 232.564374 
L 255.675184 232.568798 
L 255.979853 232.928611 
L 256.589189 233.124738 
L 256.893857 233.229437 
L 257.807862 232.800317 
L 258.417199 232.908703 
L 259.026536 232.85709 
L 259.635872 232.9699 
L 260.854545 233.143908 
L 263.901229 233.129899 
L 264.510565 233.582614 
L 265.729238 233.556808 
L 266.338575 233.611369 
L 266.947912 233.650447 
L 267.557248 233.723442 
L 267.861916 233.925468 
L 268.471253 233.853211 
L 268.775921 233.835515 
L 269.385258 234.050813 
L 269.689926 233.912196 
L 270.299263 234.089891 
L 271.517936 234.196802 
L 272.431941 234.198277 
L 273.041278 234.247677 
L 273.345946 234.398828 
L 274.259951 234.398828 
L 274.564619 234.197539 
L 274.869287 234.512375 
L 276.697297 234.845644 
L 277.001966 235.04767 
L 279.134644 235.029237 
L 279.439312 234.953293 
L 280.353317 235.164167 
L 280.657985 235.093384 
L 280.962654 235.215042 
L 281.267322 235.013016 
L 281.876658 235.072002 
L 282.181327 235.147208 
L 282.485995 235.376515 
L 283.095332 235.331539 
L 284.009337 235.566744 
L 285.22801 235.338175 
L 286.446683 235.589601 
L 286.751351 235.54315 
L 287.05602 235.692088 
L 287.970025 235.828493 
L 288.274693 235.999551 
L 288.579361 235.801212 
L 288.884029 235.751074 
L 289.188698 235.871995 
L 289.493366 235.828493 
L 289.798034 236.012823 
L 290.407371 235.918446 
L 290.712039 235.922133 
L 291.016708 235.782042 
L 291.626044 235.947201 
L 291.930713 235.74665 
L 292.235381 235.773194 
L 292.540049 236.13743 
L 292.844717 236.232545 
L 293.454054 236.191992 
L 296.500737 236.187568 
L 296.805405 236.341668 
L 297.110074 236.245816 
L 297.71941 236.423511 
L 298.024079 236.220747 
L 299.852088 236.453003 
L 300.461425 236.502404 
L 300.766093 236.627011 
L 301.070762 236.429409 
L 301.37543 236.49798 
L 301.680098 236.79512 
L 302.594103 236.813553 
L 303.20344 236.937423 
L 304.117445 236.719914 
L 305.03145 236.789959 
L 305.336118 236.905718 
L 305.640786 236.880649 
L 305.945455 236.714015 
L 306.554791 237.1365 
L 307.164128 237.160831 
L 307.468796 237.003045 
L 307.773464 237.188112 
L 308.078133 237.149034 
L 308.382801 237.303872 
L 308.687469 237.263319 
L 308.992138 237.450598 
L 309.296806 237.42258 
L 309.601474 237.545713 
L 309.906143 237.507372 
L 310.210811 237.252259 
L 310.820147 237.364332 
L 311.124816 237.196223 
L 311.429484 237.289862 
L 312.038821 237.175578 
L 313.257494 237.379078 
L 313.562162 237.616495 
L 314.780835 237.766909 
L 315.390172 237.644514 
L 315.69484 237.851701 
L 315.999509 237.738891 
L 316.304177 237.949764 
L 316.608845 237.819259 
L 317.218182 237.850226 
L 317.52285 238.037506 
L 318.132187 238.146629 
L 318.741523 238.22626 
L 319.655528 238.09133 
L 320.569533 238.298517 
L 320.874201 238.22331 
L 321.17887 237.996216 
L 321.483538 238.123772 
L 322.397543 238.104602 
L 322.702211 238.344231 
L 323.616216 238.35824 
L 324.225553 238.359715 
L 324.530221 238.361927 
L 324.834889 238.586072 
L 326.053563 238.697408 
L 326.358231 238.863305 
L 326.967568 238.80948 
L 327.272236 238.900908 
L 327.881572 238.585335 
L 328.186241 238.856669 
L 328.795577 238.828651 
L 329.404914 238.759343 
L 330.014251 239.05722 
L 330.318919 239.253347 
L 330.928256 238.877314 
L 331.232924 238.851508 
L 331.537592 238.953258 
L 331.84226 239.209845 
L 332.451597 239.177403 
L 332.756265 239.295375 
L 333.365602 239.15086 
L 335.49828 239.188463 
L 336.107617 239.383853 
L 337.32629 239.332241 
L 337.630958 239.284315 
L 338.544963 239.505511 
L 339.1543 239.617584 
L 339.458968 239.815186 
L 340.677641 239.779057 
L 341.286978 239.954539 
L 341.591646 239.800439 
L 341.896314 240.055552 
L 342.505651 240.090944 
L 342.810319 240.084308 
L 343.114988 240.290758 
L 343.419656 240.054815 
L 344.028993 240.039331 
L 344.638329 240.007626 
L 344.942998 240.250205 
L 345.247666 240.090206 
L 345.552334 240.25979 
L 346.161671 240.048916 
L 346.771007 240.109377 
L 347.075676 239.961175 
L 348.294349 240.173524 
L 348.599017 239.989931 
L 350.427027 240.513428 
L 350.731695 240.541447 
L 351.036364 240.416102 
L 351.6457 240.581999 
L 352.255037 240.581999 
L 352.864373 240.651307 
L 353.169042 240.602644 
L 353.47371 240.727251 
L 353.778378 240.621077 
L 354.387715 240.931489 
L 354.692383 240.974991 
L 355.30172 240.812781 
L 356.215725 240.902734 
L 357.12973 240.842273 
L 357.434398 240.784025 
L 357.739066 240.934439 
L 358.043735 240.758956 
L 358.653071 241.189552 
L 358.95774 241.012595 
L 359.871744 241.089276 
L 360.481081 241.183653 
L 360.785749 241.025129 
L 361.395086 241.140888 
L 362.309091 241.283929 
L 362.613759 241.549364 
L 362.918428 241.499226 
L 363.223096 241.600239 
L 363.527764 241.556 
L 363.832432 241.67987 
L 365.051106 241.522083 
L 365.355774 241.52577 
L 365.660442 241.721897 
L 366.269779 241.570009 
L 366.574447 241.595815 
L 366.879115 241.497752 
L 367.183784 241.614986 
L 367.488452 241.558212 
L 368.097789 241.685031 
L 368.402457 241.547152 
L 369.316462 241.708625 
L 369.62113 241.656276 
L 371.144472 242.072124 
L 372.058477 241.896642 
L 372.667813 242.041157 
L 372.972482 241.804477 
L 373.581818 242.116364 
L 373.581818 242.116364 
" style="fill:none;stroke:#d62728;stroke-linecap:square;stroke-width:1.5;"/>
   </g>
   <g id="patch_3">
    <path d="M 54 252 
L 54 34.56 
" style="fill:none;stroke:#000000;stroke-linecap:square;stroke-linejoin:miter;stroke-width:0.8;"/>
   </g>
   <g id="patch_4">
    <path d="M 388.8 252 
L 388.8 34.56 
" style="fill:none;stroke:#000000;stroke-linecap:square;stroke-linejoin:miter;stroke-width:0.8;"/>
   </g>
   <g id="patch_5">
    <path d="M 54 252 
L 388.8 252 
" style="fill:none;stroke:#000000;stroke-linecap:square;stroke-linejoin:miter;stroke-width:0.8;"/>
   </g>
   <g id="patch_6">
    <path d="M 54 34.56 
L 388.8 34.56 
" style="fill:none;stroke:#000000;stroke-linecap:square;stroke-linejoin:miter;stroke-width:0.8;"/>
   </g>
   <g id="text_13">
    <!-- log loss over generations (Validation) -->
    <defs>
     <path d="M 9.421875 75.984375 
L 18.40625 75.984375 
L 18.40625 0 
L 9.421875 0 
z
" id="DejaVuSans-108"/>
     <path d="M 30.609375 48.390625 
Q 23.390625 48.390625 19.1875 42.75 
Q 14.984375 37.109375 14.984375 27.296875 
Q 14.984375 17.484375 19.15625 11.84375 
Q 23.34375 6.203125 30.609375 6.203125 
Q 37.796875 6.203125 41.984375 11.859375 
Q 46.1875 17.53125 46.1875 27.296875 
Q 46.1875 37.015625 41.984375 42.703125 
Q 37.796875 48.390625 30.609375 48.390625 
z
M 30.609375 56 
Q 42.328125 56 49.015625 48.375 
Q 55.71875 40.765625 55.71875 27.296875 
Q 55.71875 13.875 49.015625 6.21875 
Q 42.328125 -1.421875 30.609375 -1.421875 
Q 18.84375 -1.421875 12.171875 6.21875 
Q 5.515625 13.875 5.515625 27.296875 
Q 5.515625 40.765625 12.171875 48.375 
Q 18.84375 56 30.609375 56 
z
" id="DejaVuSans-111"/>
     <path d="M 45.40625 27.984375 
Q 45.40625 37.75 41.375 43.109375 
Q 37.359375 48.484375 30.078125 48.484375 
Q 22.859375 48.484375 18.828125 43.109375 
Q 14.796875 37.75 14.796875 27.984375 
Q 14.796875 18.265625 18.828125 12.890625 
Q 22.859375 7.515625 30.078125 7.515625 
Q 37.359375 7.515625 41.375 12.890625 
Q 45.40625 18.265625 45.40625 27.984375 
z
M 54.390625 6.78125 
Q 54.390625 -7.171875 48.1875 -13.984375 
Q 42 -20.796875 29.203125 -20.796875 
Q 24.46875 -20.796875 20.265625 -20.09375 
Q 16.0625 -19.390625 12.109375 -17.921875 
L 12.109375 -9.1875 
Q 16.0625 -11.328125 19.921875 -12.34375 
Q 23.78125 -13.375 27.78125 -13.375 
Q 36.625 -13.375 41.015625 -8.765625 
Q 45.40625 -4.15625 45.40625 5.171875 
L 45.40625 9.625 
Q 42.625 4.78125 38.28125 2.390625 
Q 33.9375 0 27.875 0 
Q 17.828125 0 11.671875 7.65625 
Q 5.515625 15.328125 5.515625 27.984375 
Q 5.515625 40.671875 11.671875 48.328125 
Q 17.828125 56 27.875 56 
Q 33.9375 56 38.28125 53.609375 
Q 42.625 51.21875 45.40625 46.390625 
L 45.40625 54.6875 
L 54.390625 54.6875 
z
" id="DejaVuSans-103"/>
     <path id="DejaVuSans-32"/>
     <path d="M 44.28125 53.078125 
L 44.28125 44.578125 
Q 40.484375 46.53125 36.375 47.5 
Q 32.28125 48.484375 27.875 48.484375 
Q 21.1875 48.484375 17.84375 46.4375 
Q 14.5 44.390625 14.5 40.28125 
Q 14.5 37.15625 16.890625 35.375 
Q 19.28125 33.59375 26.515625 31.984375 
L 29.59375 31.296875 
Q 39.15625 29.25 43.1875 25.515625 
Q 47.21875 21.78125 47.21875 15.09375 
Q 47.21875 7.46875 41.1875 3.015625 
Q 35.15625 -1.421875 24.609375 -1.421875 
Q 20.21875 -1.421875 15.453125 -0.5625 
Q 10.6875 0.296875 5.421875 2 
L 5.421875 11.28125 
Q 10.40625 8.6875 15.234375 7.390625 
Q 20.0625 6.109375 24.8125 6.109375 
Q 31.15625 6.109375 34.5625 8.28125 
Q 37.984375 10.453125 37.984375 14.40625 
Q 37.984375 18.0625 35.515625 20.015625 
Q 33.0625 21.96875 24.703125 23.78125 
L 21.578125 24.515625 
Q 13.234375 26.265625 9.515625 29.90625 
Q 5.8125 33.546875 5.8125 39.890625 
Q 5.8125 47.609375 11.28125 51.796875 
Q 16.75 56 26.8125 56 
Q 31.78125 56 36.171875 55.265625 
Q 40.578125 54.546875 44.28125 53.078125 
z
" id="DejaVuSans-115"/>
     <path d="M 2.984375 54.6875 
L 12.5 54.6875 
L 29.59375 8.796875 
L 46.6875 54.6875 
L 56.203125 54.6875 
L 35.6875 0 
L 23.484375 0 
z
" id="DejaVuSans-118"/>
     <path d="M 56.203125 29.59375 
L 56.203125 25.203125 
L 14.890625 25.203125 
Q 15.484375 15.921875 20.484375 11.0625 
Q 25.484375 6.203125 34.421875 6.203125 
Q 39.59375 6.203125 44.453125 7.46875 
Q 49.3125 8.734375 54.109375 11.28125 
L 54.109375 2.78125 
Q 49.265625 0.734375 44.1875 -0.34375 
Q 39.109375 -1.421875 33.890625 -1.421875 
Q 20.796875 -1.421875 13.15625 6.1875 
Q 5.515625 13.8125 5.515625 26.8125 
Q 5.515625 40.234375 12.765625 48.109375 
Q 20.015625 56 32.328125 56 
Q 43.359375 56 49.78125 48.890625 
Q 56.203125 41.796875 56.203125 29.59375 
z
M 47.21875 32.234375 
Q 47.125 39.59375 43.09375 43.984375 
Q 39.0625 48.390625 32.421875 48.390625 
Q 24.90625 48.390625 20.390625 44.140625 
Q 15.875 39.890625 15.1875 32.171875 
z
" id="DejaVuSans-101"/>
     <path d="M 41.109375 46.296875 
Q 39.59375 47.171875 37.8125 47.578125 
Q 36.03125 48 33.890625 48 
Q 26.265625 48 22.1875 43.046875 
Q 18.109375 38.09375 18.109375 28.8125 
L 18.109375 0 
L 9.078125 0 
L 9.078125 54.6875 
L 18.109375 54.6875 
L 18.109375 46.1875 
Q 20.953125 51.171875 25.484375 53.578125 
Q 30.03125 56 36.53125 56 
Q 37.453125 56 38.578125 55.875 
Q 39.703125 55.765625 41.0625 55.515625 
z
" id="DejaVuSans-114"/>
     <path d="M 54.890625 33.015625 
L 54.890625 0 
L 45.90625 0 
L 45.90625 32.71875 
Q 45.90625 40.484375 42.875 44.328125 
Q 39.84375 48.1875 33.796875 48.1875 
Q 26.515625 48.1875 22.3125 43.546875 
Q 18.109375 38.921875 18.109375 30.90625 
L 18.109375 0 
L 9.078125 0 
L 9.078125 54.6875 
L 18.109375 54.6875 
L 18.109375 46.1875 
Q 21.34375 51.125 25.703125 53.5625 
Q 30.078125 56 35.796875 56 
Q 45.21875 56 50.046875 50.171875 
Q 54.890625 44.34375 54.890625 33.015625 
z
" id="DejaVuSans-110"/>
     <path d="M 34.28125 27.484375 
Q 23.390625 27.484375 19.1875 25 
Q 14.984375 22.515625 14.984375 16.5 
Q 14.984375 11.71875 18.140625 8.90625 
Q 21.296875 6.109375 26.703125 6.109375 
Q 34.1875 6.109375 38.703125 11.40625 
Q 43.21875 16.703125 43.21875 25.484375 
L 43.21875 27.484375 
z
M 52.203125 31.203125 
L 52.203125 0 
L 43.21875 0 
L 43.21875 8.296875 
Q 40.140625 3.328125 35.546875 0.953125 
Q 30.953125 -1.421875 24.3125 -1.421875 
Q 15.921875 -1.421875 10.953125 3.296875 
Q 6 8.015625 6 15.921875 
Q 6 25.140625 12.171875 29.828125 
Q 18.359375 34.515625 30.609375 34.515625 
L 43.21875 34.515625 
L 43.21875 35.40625 
Q 43.21875 41.609375 39.140625 45 
Q 35.0625 48.390625 27.6875 48.390625 
Q 23 48.390625 18.546875 47.265625 
Q 14.109375 46.140625 10.015625 43.890625 
L 10.015625 52.203125 
Q 14.9375 54.109375 19.578125 55.046875 
Q 24.21875 56 28.609375 56 
Q 40.484375 56 46.34375 49.84375 
Q 52.203125 43.703125 52.203125 31.203125 
z
" id="DejaVuSans-97"/>
     <path d="M 18.3125 70.21875 
L 18.3125 54.6875 
L 36.8125 54.6875 
L 36.8125 47.703125 
L 18.3125 47.703125 
L 18.3125 18.015625 
Q 18.3125 11.328125 20.140625 9.421875 
Q 21.96875 7.515625 27.59375 7.515625 
L 36.8125 7.515625 
L 36.8125 0 
L 27.59375 0 
Q 17.1875 0 13.234375 3.875 
Q 9.28125 7.765625 9.28125 18.015625 
L 9.28125 47.703125 
L 2.6875 47.703125 
L 2.6875 54.6875 
L 9.28125 54.6875 
L 9.28125 70.21875 
z
" id="DejaVuSans-116"/>
     <path d="M 9.421875 54.6875 
L 18.40625 54.6875 
L 18.40625 0 
L 9.421875 0 
z
M 9.421875 75.984375 
L 18.40625 75.984375 
L 18.40625 64.59375 
L 9.421875 64.59375 
z
" id="DejaVuSans-105"/>
     <path d="M 31 75.875 
Q 24.46875 64.65625 21.28125 53.65625 
Q 18.109375 42.671875 18.109375 31.390625 
Q 18.109375 20.125 21.3125 9.0625 
Q 24.515625 -2 31 -13.1875 
L 23.1875 -13.1875 
Q 15.875 -1.703125 12.234375 9.375 
Q 8.59375 20.453125 8.59375 31.390625 
Q 8.59375 42.28125 12.203125 53.3125 
Q 15.828125 64.359375 23.1875 75.875 
z
" id="DejaVuSans-40"/>
     <path d="M 28.609375 0 
L 0.78125 72.90625 
L 11.078125 72.90625 
L 34.1875 11.53125 
L 57.328125 72.90625 
L 67.578125 72.90625 
L 39.796875 0 
z
" id="DejaVuSans-86"/>
     <path d="M 45.40625 46.390625 
L 45.40625 75.984375 
L 54.390625 75.984375 
L 54.390625 0 
L 45.40625 0 
L 45.40625 8.203125 
Q 42.578125 3.328125 38.25 0.953125 
Q 33.9375 -1.421875 27.875 -1.421875 
Q 17.96875 -1.421875 11.734375 6.484375 
Q 5.515625 14.40625 5.515625 27.296875 
Q 5.515625 40.1875 11.734375 48.09375 
Q 17.96875 56 27.875 56 
Q 33.9375 56 38.25 53.625 
Q 42.578125 51.265625 45.40625 46.390625 
z
M 14.796875 27.296875 
Q 14.796875 17.390625 18.875 11.75 
Q 22.953125 6.109375 30.078125 6.109375 
Q 37.203125 6.109375 41.296875 11.75 
Q 45.40625 17.390625 45.40625 27.296875 
Q 45.40625 37.203125 41.296875 42.84375 
Q 37.203125 48.484375 30.078125 48.484375 
Q 22.953125 48.484375 18.875 42.84375 
Q 14.796875 37.203125 14.796875 27.296875 
z
" id="DejaVuSans-100"/>
     <path d="M 8.015625 75.875 
L 15.828125 75.875 
Q 23.140625 64.359375 26.78125 53.3125 
Q 30.421875 42.28125 30.421875 31.390625 
Q 30.421875 20.453125 26.78125 9.375 
Q 23.140625 -1.703125 15.828125 -13.1875 
L 8.015625 -13.1875 
Q 14.5 -2 17.703125 9.0625 
Q 20.90625 20.125 20.90625 31.390625 
Q 20.90625 42.671875 17.703125 53.65625 
Q 14.5 64.65625 8.015625 75.875 
z
" id="DejaVuSans-41"/>
    </defs>
    <g transform="translate(109.12875 28.56)scale(0.12 -0.12)">
     <use xlink:href="#DejaVuSans-108"/>
     <use x="27.783203" xlink:href="#DejaVuSans-111"/>
     <use x="88.964844" xlink:href="#DejaVuSans-103"/>
     <use x="152.441406" xlink:href="#DejaVuSans-32"/>
     <use x="184.228516" xlink:href="#DejaVuSans-108"/>
     <use x="212.011719" xlink:href="#DejaVuSans-111"/>
     <use x="273.193359" xlink:href="#DejaVuSans-115"/>
     <use x="325.292969" xlink:href="#DejaVuSans-115"/>
     <use x="377.392578" xlink:href="#DejaVuSans-32"/>
     <use x="409.179688" xlink:href="#DejaVuSans-111"/>
     <use x="470.361328" xlink:href="#DejaVuSans-118"/>
     <use x="529.541016" xlink:href="#DejaVuSans-101"/>
     <use x="591.064453" xlink:href="#DejaVuSans-114"/>
     <use x="632.177734" xlink:href="#DejaVuSans-32"/>
     <use x="663.964844" xlink:href="#DejaVuSans-103"/>
     <use x="727.441406" xlink:href="#DejaVuSans-101"/>
     <use x="788.964844" xlink:href="#DejaVuSans-110"/>
     <use x="852.34375" xlink:href="#DejaVuSans-101"/>
     <use x="913.867188" xlink:href="#DejaVuSans-114"/>
     <use x="954.980469" xlink:href="#DejaVuSans-97"/>
     <use x="1016.259766" xlink:href="#DejaVuSans-116"/>
     <use x="1055.46875" xlink:href="#DejaVuSans-105"/>
     <use x="1083.251953" xlink:href="#DejaVuSans-111"/>
     <use x="1144.433594" xlink:href="#DejaVuSans-110"/>
     <use x="1207.8125" xlink:href="#DejaVuSans-115"/>
     <use x="1259.912109" xlink:href="#DejaVuSans-32"/>
     <use x="1291.699219" xlink:href="#DejaVuSans-40"/>
     <use x="1330.712891" xlink:href="#DejaVuSans-86"/>
     <use x="1399.011719" xlink:href="#DejaVuSans-97"/>
     <use x="1460.291016" xlink:href="#DejaVuSans-108"/>
     <use x="1488.074219" xlink:href="#DejaVuSans-105"/>
     <use x="1515.857422" xlink:href="#DejaVuSans-100"/>
     <use x="1579.333984" xlink:href="#DejaVuSans-97"/>
     <use x="1640.613281" xlink:href="#DejaVuSans-116"/>
     <use x="1679.822266" xlink:href="#DejaVuSans-105"/>
     <use x="1707.605469" xlink:href="#DejaVuSans-111"/>
     <use x="1768.787109" xlink:href="#DejaVuSans-110"/>
     <use x="1832.166016" xlink:href="#DejaVuSans-41"/>
    </g>
   </g>
   <g id="legend_1">
    <g id="patch_7">
     <path d="M 231.93125 102.385 
L 381.8 102.385 
Q 383.8 102.385 383.8 100.385 
L 383.8 41.56 
Q 383.8 39.56 381.8 39.56 
L 231.93125 39.56 
Q 229.93125 39.56 229.93125 41.56 
L 229.93125 100.385 
Q 229.93125 102.385 231.93125 102.385 
z
" style="fill:#ffffff;opacity:0.8;stroke:#cccccc;stroke-linejoin:miter;"/>
    </g>
    <g id="line2d_17">
     <path d="M 233.93125 47.658437 
L 253.93125 47.658437 
" style="fill:none;stroke:#1f77b4;stroke-linecap:square;stroke-width:1.5;"/>
    </g>
    <g id="line2d_18"/>
    <g id="text_14">
     <!-- p1_validation_1_logloss -->
     <defs>
      <path d="M 18.109375 8.203125 
L 18.109375 -20.796875 
L 9.078125 -20.796875 
L 9.078125 54.6875 
L 18.109375 54.6875 
L 18.109375 46.390625 
Q 20.953125 51.265625 25.265625 53.625 
Q 29.59375 56 35.59375 56 
Q 45.5625 56 51.78125 48.09375 
Q 58.015625 40.1875 58.015625 27.296875 
Q 58.015625 14.40625 51.78125 6.484375 
Q 45.5625 -1.421875 35.59375 -1.421875 
Q 29.59375 -1.421875 25.265625 0.953125 
Q 20.953125 3.328125 18.109375 8.203125 
z
M 48.6875 27.296875 
Q 48.6875 37.203125 44.609375 42.84375 
Q 40.53125 48.484375 33.40625 48.484375 
Q 26.265625 48.484375 22.1875 42.84375 
Q 18.109375 37.203125 18.109375 27.296875 
Q 18.109375 17.390625 22.1875 11.75 
Q 26.265625 6.109375 33.40625 6.109375 
Q 40.53125 6.109375 44.609375 11.75 
Q 48.6875 17.390625 48.6875 27.296875 
z
" id="DejaVuSans-112"/>
      <path d="M 50.984375 -16.609375 
L 50.984375 -23.578125 
L -0.984375 -23.578125 
L -0.984375 -16.609375 
z
" id="DejaVuSans-95"/>
     </defs>
     <g transform="translate(261.93125 51.158437)scale(0.1 -0.1)">
      <use xlink:href="#DejaVuSans-112"/>
      <use x="63.476562" xlink:href="#DejaVuSans-49"/>
      <use x="127.099609" xlink:href="#DejaVuSans-95"/>
      <use x="177.099609" xlink:href="#DejaVuSans-118"/>
      <use x="236.279297" xlink:href="#DejaVuSans-97"/>
      <use x="297.558594" xlink:href="#DejaVuSans-108"/>
      <use x="325.341797" xlink:href="#DejaVuSans-105"/>
      <use x="353.125" xlink:href="#DejaVuSans-100"/>
      <use x="416.601562" xlink:href="#DejaVuSans-97"/>
      <use x="477.880859" xlink:href="#DejaVuSans-116"/>
      <use x="517.089844" xlink:href="#DejaVuSans-105"/>
      <use x="544.873047" xlink:href="#DejaVuSans-111"/>
      <use x="606.054688" xlink:href="#DejaVuSans-110"/>
      <use x="669.433594" xlink:href="#DejaVuSans-95"/>
      <use x="719.433594" xlink:href="#DejaVuSans-49"/>
      <use x="783.056641" xlink:href="#DejaVuSans-95"/>
      <use x="833.056641" xlink:href="#DejaVuSans-108"/>
      <use x="860.839844" xlink:href="#DejaVuSans-111"/>
      <use x="922.021484" xlink:href="#DejaVuSans-103"/>
      <use x="985.498047" xlink:href="#DejaVuSans-108"/>
      <use x="1013.28125" xlink:href="#DejaVuSans-111"/>
      <use x="1074.462891" xlink:href="#DejaVuSans-115"/>
      <use x="1126.5625" xlink:href="#DejaVuSans-115"/>
     </g>
    </g>
    <g id="line2d_19">
     <path d="M 233.93125 62.614688 
L 253.93125 62.614688 
" style="fill:none;stroke:#ff7f0e;stroke-linecap:square;stroke-width:1.5;"/>
    </g>
    <g id="line2d_20"/>
    <g id="text_15">
     <!-- p2_validation_1_logloss -->
     <g transform="translate(261.93125 66.114688)scale(0.1 -0.1)">
      <use xlink:href="#DejaVuSans-112"/>
      <use x="63.476562" xlink:href="#DejaVuSans-50"/>
      <use x="127.099609" xlink:href="#DejaVuSans-95"/>
      <use x="177.099609" xlink:href="#DejaVuSans-118"/>
      <use x="236.279297" xlink:href="#DejaVuSans-97"/>
      <use x="297.558594" xlink:href="#DejaVuSans-108"/>
      <use x="325.341797" xlink:href="#DejaVuSans-105"/>
      <use x="353.125" xlink:href="#DejaVuSans-100"/>
      <use x="416.601562" xlink:href="#DejaVuSans-97"/>
      <use x="477.880859" xlink:href="#DejaVuSans-116"/>
      <use x="517.089844" xlink:href="#DejaVuSans-105"/>
      <use x="544.873047" xlink:href="#DejaVuSans-111"/>
      <use x="606.054688" xlink:href="#DejaVuSans-110"/>
      <use x="669.433594" xlink:href="#DejaVuSans-95"/>
      <use x="719.433594" xlink:href="#DejaVuSans-49"/>
      <use x="783.056641" xlink:href="#DejaVuSans-95"/>
      <use x="833.056641" xlink:href="#DejaVuSans-108"/>
      <use x="860.839844" xlink:href="#DejaVuSans-111"/>
      <use x="922.021484" xlink:href="#DejaVuSans-103"/>
      <use x="985.498047" xlink:href="#DejaVuSans-108"/>
      <use x="1013.28125" xlink:href="#DejaVuSans-111"/>
      <use x="1074.462891" xlink:href="#DejaVuSans-115"/>
      <use x="1126.5625" xlink:href="#DejaVuSans-115"/>
     </g>
    </g>
    <g id="line2d_21">
     <path d="M 233.93125 77.570937 
L 253.93125 77.570937 
" style="fill:none;stroke:#2ca02c;stroke-linecap:square;stroke-width:1.5;"/>
    </g>
    <g id="line2d_22"/>
    <g id="text_16">
     <!-- p3_validation_1_logloss -->
     <defs>
      <path d="M 40.578125 39.3125 
Q 47.65625 37.796875 51.625 33 
Q 55.609375 28.21875 55.609375 21.1875 
Q 55.609375 10.40625 48.1875 4.484375 
Q 40.765625 -1.421875 27.09375 -1.421875 
Q 22.515625 -1.421875 17.65625 -0.515625 
Q 12.796875 0.390625 7.625 2.203125 
L 7.625 11.71875 
Q 11.71875 9.328125 16.59375 8.109375 
Q 21.484375 6.890625 26.8125 6.890625 
Q 36.078125 6.890625 40.9375 10.546875 
Q 45.796875 14.203125 45.796875 21.1875 
Q 45.796875 27.640625 41.28125 31.265625 
Q 36.765625 34.90625 28.71875 34.90625 
L 20.21875 34.90625 
L 20.21875 43.015625 
L 29.109375 43.015625 
Q 36.375 43.015625 40.234375 45.921875 
Q 44.09375 48.828125 44.09375 54.296875 
Q 44.09375 59.90625 40.109375 62.90625 
Q 36.140625 65.921875 28.71875 65.921875 
Q 24.65625 65.921875 20.015625 65.03125 
Q 15.375 64.15625 9.8125 62.3125 
L 9.8125 71.09375 
Q 15.4375 72.65625 20.34375 73.4375 
Q 25.25 74.21875 29.59375 74.21875 
Q 40.828125 74.21875 47.359375 69.109375 
Q 53.90625 64.015625 53.90625 55.328125 
Q 53.90625 49.265625 50.4375 45.09375 
Q 46.96875 40.921875 40.578125 39.3125 
z
" id="DejaVuSans-51"/>
     </defs>
     <g transform="translate(261.93125 81.070937)scale(0.1 -0.1)">
      <use xlink:href="#DejaVuSans-112"/>
      <use x="63.476562" xlink:href="#DejaVuSans-51"/>
      <use x="127.099609" xlink:href="#DejaVuSans-95"/>
      <use x="177.099609" xlink:href="#DejaVuSans-118"/>
      <use x="236.279297" xlink:href="#DejaVuSans-97"/>
      <use x="297.558594" xlink:href="#DejaVuSans-108"/>
      <use x="325.341797" xlink:href="#DejaVuSans-105"/>
      <use x="353.125" xlink:href="#DejaVuSans-100"/>
      <use x="416.601562" xlink:href="#DejaVuSans-97"/>
      <use x="477.880859" xlink:href="#DejaVuSans-116"/>
      <use x="517.089844" xlink:href="#DejaVuSans-105"/>
      <use x="544.873047" xlink:href="#DejaVuSans-111"/>
      <use x="606.054688" xlink:href="#DejaVuSans-110"/>
      <use x="669.433594" xlink:href="#DejaVuSans-95"/>
      <use x="719.433594" xlink:href="#DejaVuSans-49"/>
      <use x="783.056641" xlink:href="#DejaVuSans-95"/>
      <use x="833.056641" xlink:href="#DejaVuSans-108"/>
      <use x="860.839844" xlink:href="#DejaVuSans-111"/>
      <use x="922.021484" xlink:href="#DejaVuSans-103"/>
      <use x="985.498047" xlink:href="#DejaVuSans-108"/>
      <use x="1013.28125" xlink:href="#DejaVuSans-111"/>
      <use x="1074.462891" xlink:href="#DejaVuSans-115"/>
      <use x="1126.5625" xlink:href="#DejaVuSans-115"/>
     </g>
    </g>
    <g id="line2d_23">
     <path d="M 233.93125 92.527187 
L 253.93125 92.527187 
" style="fill:none;stroke:#d62728;stroke-linecap:square;stroke-width:1.5;"/>
    </g>
    <g id="line2d_24"/>
    <g id="text_17">
     <!-- p4_validation_1_logloss -->
     <g transform="translate(261.93125 96.027187)scale(0.1 -0.1)">
      <use xlink:href="#DejaVuSans-112"/>
      <use x="63.476562" xlink:href="#DejaVuSans-52"/>
      <use x="127.099609" xlink:href="#DejaVuSans-95"/>
      <use x="177.099609" xlink:href="#DejaVuSans-118"/>
      <use x="236.279297" xlink:href="#DejaVuSans-97"/>
      <use x="297.558594" xlink:href="#DejaVuSans-108"/>
      <use x="325.341797" xlink:href="#DejaVuSans-105"/>
      <use x="353.125" xlink:href="#DejaVuSans-100"/>
      <use x="416.601562" xlink:href="#DejaVuSans-97"/>
      <use x="477.880859" xlink:href="#DejaVuSans-116"/>
      <use x="517.089844" xlink:href="#DejaVuSans-105"/>
      <use x="544.873047" xlink:href="#DejaVuSans-111"/>
      <use x="606.054688" xlink:href="#DejaVuSans-110"/>
      <use x="669.433594" xlink:href="#DejaVuSans-95"/>
      <use x="719.433594" xlink:href="#DejaVuSans-49"/>
      <use x="783.056641" xlink:href="#DejaVuSans-95"/>
      <use x="833.056641" xlink:href="#DejaVuSans-108"/>
      <use x="860.839844" xlink:href="#DejaVuSans-111"/>
      <use x="922.021484" xlink:href="#DejaVuSans-103"/>
      <use x="985.498047" xlink:href="#DejaVuSans-108"/>
      <use x="1013.28125" xlink:href="#DejaVuSans-111"/>
      <use x="1074.462891" xlink:href="#DejaVuSans-115"/>
      <use x="1126.5625" xlink:href="#DejaVuSans-115"/>
     </g>
    </g>
   </g>
  </g>
 </g>
 <defs>
  <clipPath id="pc0669f3b45">
   <rect height="217.44" width="334.8" x="54" y="34.56"/>
  </clipPath>
 </defs>
</svg>
